<?xml version="1.0" standalone="no"?>
<!DOCTYPE svg PUBLIC "-//W3C//DTD SVG 20010904//EN"
 "http://www.w3.org/TR/2001/REC-SVG-20010904/DTD/svg10.dtd">
<svg version="1.0" xmlns="http://www.w3.org/2000/svg"
 width="1181.000000pt" height="1181.000000pt" viewBox="0 0 1181.000000 1181.000000"
 preserveAspectRatio="xMidYMid meet">

<g transform="translate(0.000000,1181.000000) scale(0.100000,-0.100000)"
fill="#000000" stroke="none">
<path d="M5188 11503 c-11 -3 -18 -14 -18 -27 0 -18 -9 -24 -49 -35 -150 -38
-225 -164 -171 -289 40 -93 109 -138 223 -144 26 -2 47 -7 47 -11 0 -20 32
-37 69 -37 39 0 41 2 41 30 0 25 4 30 23 30 36 0 143 57 171 91 53 63 55 150
4 241 -36 64 -119 108 -203 108 -35 0 -44 4 -53 25 -11 25 -37 30 -84 18z
m203 -134 c114 -58 79 -249 -50 -275 l-28 -6 -12 114 c-6 62 -14 130 -17 151
-6 37 -6 37 31 37 19 0 54 -9 76 -21z m-190 -140 c8 -79 12 -148 8 -153 -4 -5
-30 -3 -58 4 -72 17 -111 63 -111 131 0 53 15 93 46 121 26 23 77 49 89 45 6
-2 17 -68 26 -148z"/>
<path d="M5791 11340 c-52 -24 -51 -24 -51 -5 0 16 -12 18 -59 9 l-31 -6 0
-284 c0 -183 4 -284 10 -284 6 0 10 -7 10 -15 0 -11 11 -15 43 -15 l42 0 -3
151 -3 152 31 -26 c75 -64 191 -41 237 46 39 76 10 219 -54 265 -45 32 -118
37 -172 12z m116 -65 c67 -47 21 -225 -57 -225 -67 0 -100 37 -100 111 0 98
88 162 157 114z"/>
<path d="M6120 11283 c-1 -32 -6 -104 -13 -160 -15 -118 -10 -132 50 -140 37
-5 39 -3 117 86 43 50 85 99 93 108 13 16 14 15 9 -17 -15 -104 -18 -170 -7
-170 6 0 11 -7 11 -15 0 -11 11 -15 39 -15 l39 0 7 93 c4 50 11 121 15 156 5
36 6 69 2 75 -4 6 -7 16 -7 21 0 6 -18 11 -40 13 -39 3 -42 1 -128 -98 -48
-55 -91 -100 -95 -100 -5 0 -3 41 3 90 6 50 8 90 3 90 -4 0 -8 9 -8 20 0 17
-7 20 -45 20 l-45 0 0 -57z"/>
<path d="M6606 11268 c-3 -13 -14 -80 -26 -149 -21 -125 -19 -179 5 -179 7 0
26 -3 41 -6 l29 -6 13 90 c19 145 32 192 50 192 8 0 44 -5 79 -11 l64 -11 -7
-46 c-4 -25 -15 -81 -24 -126 -16 -72 -16 -83 -3 -103 12 -17 25 -23 54 -23
37 0 39 1 39 33 0 17 11 86 24 152 16 79 20 122 14 126 -6 4 -8 12 -4 18 8 13
2 14 -179 46 -170 30 -164 30 -169 3z"/>
<path d="M7110 11169 c-63 -26 -103 -89 -104 -164 0 -68 49 -146 114 -178 43
-21 140 -30 156 -15 3 4 2 19 -3 34 -9 26 -13 28 -60 25 -42 -2 -55 2 -81 24
-25 21 -32 34 -32 63 1 59 34 120 74 137 47 20 62 19 113 -6 24 -12 46 -19 49
-17 2 3 1 18 -2 35 -4 22 -16 35 -42 48 -44 21 -147 29 -182 14z"/>
<path d="M7436 11101 c-2 -3 -11 -31 -19 -61 -9 -30 -32 -95 -52 -145 -19 -50
-31 -91 -25 -93 5 -2 10 -9 10 -16 0 -19 188 -89 251 -94 49 -4 59 -1 78 19
39 42 19 127 -40 171 -34 25 -128 62 -137 53 -2 -2 -2 -15 2 -29 4 -17 20 -31
50 -44 50 -23 60 -34 51 -62 -9 -28 -50 -35 -104 -18 -57 18 -57 26 -7 161 44
116 42 139 -15 154 -22 6 -41 8 -43 4z"/>
<path d="M3927 11015 c-42 -14 -106 -60 -114 -81 -3 -8 3 -26 12 -41 l18 -26
26 31 c49 59 113 62 127 6 4 -14 5 -26 3 -27 -2 -2 -37 -31 -76 -66 -46 -39
-73 -71 -73 -83 0 -37 41 -97 71 -103 35 -8 104 22 138 58 19 21 28 24 43 16
20 -11 50 -5 85 18 18 12 20 18 11 43 -8 25 -14 28 -37 24 -26 -6 -29 -2 -51
58 -28 78 -64 151 -82 165 -24 19 -62 22 -101 8z m116 -235 c6 -25 -44 -70
-79 -70 -36 0 -29 24 18 63 45 38 53 39 61 7z"/>
<path d="M7771 10908 c-13 -40 -37 -109 -54 -152 -22 -56 -28 -81 -19 -84 7
-2 12 -9 12 -16 0 -10 52 -36 72 -36 4 0 10 15 13 33 4 17 28 86 52 152 28 72
41 121 35 123 -6 2 -9 9 -6 16 3 8 -10 17 -34 24 -22 7 -41 12 -44 12 -2 0
-14 -33 -27 -72z"/>
<path d="M3560 10855 c-52 -25 -95 -47 -97 -48 -1 -2 9 -39 23 -82 41 -128 34
-234 -17 -250 -14 -5 -15 -10 -5 -30 18 -40 64 -27 91 25 26 50 20 125 -21
267 -5 18 1 25 36 43 23 12 47 19 53 17 7 -2 36 -59 66 -126 29 -66 55 -121
57 -121 13 0 74 30 74 36 0 4 -14 37 -32 73 -17 36 -48 104 -69 151 -20 47
-43 86 -50 87 -8 2 -57 -18 -109 -42z"/>
<path d="M4234 10835 c-3 -14 -3 -33 2 -42 4 -10 7 -21 6 -25 -2 -8 66 -23 72
-17 8 8 8 54 1 76 -6 19 -31 33 -62 33 -7 0 -15 -11 -19 -25z"/>
<path d="M8613 10730 c-18 -34 -78 -133 -133 -221 -84 -136 -98 -163 -88 -179
18 -29 185 -128 229 -135 137 -23 200 154 96 271 -16 19 -42 41 -58 49 -24 13
-28 13 -33 -2 -7 -16 3 -33 41 -71 27 -27 29 -52 7 -98 -36 -75 -97 -85 -172
-28 -4 2 109 191 185 312 21 33 38 50 46 46 7 -4 40 -27 74 -51 58 -40 63 -42
72 -24 6 10 7 22 3 26 -4 3 -7 11 -7 17 0 9 -210 147 -225 147 -3 1 -20 -26
-37 -59z"/>
<path d="M5872 10708 c-77 -99 -129 -181 -182 -286 -44 -90 -100 -244 -100
-278 0 -31 -29 -11 -68 49 -37 57 -142 171 -142 154 0 -4 9 -39 19 -79 21 -75
30 -153 19 -163 -3 -3 -43 38 -89 92 -114 135 -313 346 -356 379 -42 32 -43
36 12 -105 38 -100 129 -519 115 -534 -4 -5 -29 14 -55 42 -50 53 -75 59 -51
13 45 -88 99 -289 126 -474 24 -165 28 -240 13 -245 -15 -5 -87 72 -221 241
-131 163 -211 281 -254 372 -30 64 -48 81 -48 45 0 -61 26 -187 56 -270 23
-67 30 -98 23 -107 -6 -7 -6 -14 -1 -18 15 -9 98 -213 117 -286 27 -107 56
-200 92 -295 57 -152 101 -226 215 -358 69 -80 79 -97 54 -97 -21 0 -175 167
-248 270 -37 52 -77 106 -88 120 l-20 25 0 -42 c0 -24 -2 -43 -5 -43 -3 0 -47
35 -98 77 -161 134 -267 189 -348 181 -31 -3 -30 -4 55 -76 47 -40 107 -103
133 -140 25 -37 55 -77 66 -89 23 -26 16 -30 -16 -8 -30 19 -132 31 -141 16
-12 -19 -46 -13 -46 8 0 23 -45 61 -71 61 -29 0 -59 -47 -52 -81 5 -29 5 -29
-41 -29 -50 0 -86 -24 -86 -59 0 -11 -18 -34 -40 -51 -35 -27 -70 -75 -70 -95
0 -14 39 -3 44 13 4 10 21 33 40 51 29 28 37 31 55 22 12 -7 21 -20 21 -30 0
-29 39 -71 66 -71 13 0 33 -5 43 -12 15 -9 26 -7 56 10 37 23 55 22 55 -3 0
-21 34 -36 67 -29 24 5 31 1 47 -26 10 -18 32 -38 50 -45 32 -14 163 -142 154
-151 -3 -2 -21 -6 -39 -8 -19 -2 -53 -11 -77 -20 -32 -12 -65 -15 -129 -12
-47 3 -87 7 -90 10 -3 3 2 15 11 28 48 68 -23 178 -115 178 -24 0 -39 -5 -43
-15 -3 -8 -13 -15 -23 -14 -11 0 -13 3 -5 6 6 2 12 10 12 16 -1 7 -16 -6 -35
-27 -30 -34 -35 -47 -35 -89 0 -86 57 -135 142 -123 24 3 50 6 58 6 24 1 107
-17 88 -19 -10 0 -51 -23 -91 -51 -41 -27 -81 -50 -89 -50 -9 0 -23 -11 -32
-25 -9 -14 -22 -23 -27 -19 -6 3 -29 1 -52 -4 -23 -6 -55 -13 -72 -16 -29 -4
-30 -4 -30 37 0 86 -79 144 -163 119 -26 -8 -43 -21 -51 -38 -13 -30 -6 -47
10 -24 8 12 9 9 5 -10 -3 -14 -6 -28 -6 -32 0 -5 -10 -8 -21 -8 -19 0 -21 -4
-15 -32 8 -40 23 -58 63 -75 45 -18 96 -16 124 5 15 12 43 20 72 21 27 0 57 6
67 11 10 6 22 10 26 10 13 0 -20 -32 -42 -41 -13 -4 -32 -27 -43 -51 -26 -55
-55 -105 -74 -126 -8 -9 -16 -24 -20 -32 -3 -8 -12 -32 -21 -52 -25 -58 -5
-45 29 18 17 31 40 70 52 87 19 26 23 28 29 13 5 -12 -2 -26 -19 -42 -15 -13
-31 -42 -38 -63 -10 -33 -9 -45 7 -78 12 -24 27 -39 41 -41 33 -5 17 -32 -18
-32 -19 0 -32 6 -36 18 -12 29 -39 53 -78 67 -94 32 -183 -48 -157 -140 7 -24
5 -34 -13 -53 l-21 -22 -46 83 c-52 92 -116 182 -172 241 -33 34 -41 38 -72
33 -43 -7 -138 -71 -175 -117 -15 -19 -30 -48 -33 -65 -6 -30 -5 -31 108 -88
63 -32 136 -77 163 -101 l47 -43 -35 -7 c-83 -15 -167 -129 -177 -238 -3 -36
-9 -58 -17 -58 -19 0 -144 -67 -196 -106 -57 -42 -129 -119 -129 -138 0 -25
15 -26 96 -7 44 11 105 22 137 24 l57 6 -37 -43 c-53 -60 -99 -158 -123 -260
-21 -91 -27 -226 -10 -226 5 0 33 18 62 40 29 21 54 38 56 36 2 -2 10 -35 18
-73 47 -227 220 -449 422 -542 44 -21 52 -28 52 -52 0 -15 12 -85 26 -156 41
-205 41 -247 4 -398 -17 -71 -42 -160 -55 -198 -73 -208 -85 -459 -27 -563 9
-16 2 -22 -58 -51 -50 -24 -77 -45 -97 -74 -15 -22 -40 -56 -55 -76 -15 -19
-40 -61 -54 -92 -15 -31 -34 -66 -43 -77 -9 -12 -23 -32 -31 -44 -8 -12 -20
-28 -25 -34 -6 -6 -21 -24 -33 -41 -40 -52 -165 -176 -222 -220 -64 -49 -144
-81 -181 -72 -33 8 -63 82 -86 211 -30 171 -15 596 32 891 24 151 70 327 104
399 40 83 107 146 155 146 33 0 36 -3 47 -42 8 -29 9 -87 5 -179 l-7 -136 41
-28 c22 -15 40 -35 40 -44 0 -10 20 -31 44 -48 l45 -32 10 52 c52 261 61 497
23 630 -28 98 -52 146 -95 188 -149 148 -199 173 -325 167 -178 -8 -371 -156
-495 -378 -134 -241 -224 -630 -246 -1066 -21 -398 18 -689 117 -877 46 -89
199 -247 268 -279 77 -34 207 -32 297 6 166 70 354 230 527 451 34 44 63 81
65 83 1 1 19 -5 41 -14 59 -25 137 -13 231 35 99 49 190 118 249 187 26 30 53
54 61 54 8 0 38 -12 67 -26 28 -15 71 -32 96 -38 l45 -12 -41 -40 c-45 -42
-124 -145 -148 -191 -33 -65 -31 -93 18 -189 109 -211 230 -306 376 -292 68 7
126 40 194 111 70 75 101 138 117 237 19 124 -6 251 -67 342 -27 39 -32 53
-22 59 28 18 46 8 63 -37 35 -93 131 -152 226 -141 28 4 62 13 74 21 12 8 47
19 78 25 82 15 146 63 193 144 9 16 12 7 17 -50 7 -84 30 -145 67 -177 l28
-23 -90 -5 c-79 -5 -99 -10 -170 -45 l-80 -40 -21 29 c-26 35 -66 58 -101 58
-21 0 -27 -7 -37 -42 -18 -68 -21 -74 -26 -61 -2 7 -20 17 -40 24 -49 16 -59
2 -76 -107 -18 -108 -29 -132 -96 -203 -66 -69 -67 -93 -5 -118 l46 -18 -6
-95 c-22 -363 -16 -704 14 -760 20 -38 162 -67 237 -49 68 17 298 129 363 177
122 91 218 245 261 417 12 49 32 106 44 126 21 37 21 37 45 19 24 -18 24 -18
12 -111 -14 -104 -18 -369 -7 -440 11 -76 43 -121 100 -142 73 -27 165 -9 165
32 0 15 11 19 62 24 55 5 65 3 90 -18 16 -13 52 -32 81 -41 62 -19 118 -9 165
31 17 14 37 25 46 25 37 0 97 42 126 88 33 52 41 132 16 165 -22 29 -35 19
-52 -40 -9 -32 -20 -62 -24 -66 -15 -17 -33 27 -41 101 -10 101 -47 185 -90
208 l-33 16 30 13 c16 7 38 22 48 34 11 11 30 21 43 21 28 0 59 15 89 41 l20
19 -17 -67 c-24 -93 -25 -143 -1 -143 27 0 57 38 77 97 22 69 35 76 35 19 0
-25 4 -46 9 -46 4 0 11 -40 13 -89 4 -72 11 -102 35 -153 49 -102 94 -136 194
-145 54 -5 59 -4 104 31 55 42 75 45 75 14 -1 -25 -65 -74 -148 -113 -56 -26
-160 -129 -244 -239 -56 -75 -60 -82 -54 -120 16 -96 107 -211 192 -240 133
-45 266 -28 404 53 8 5 39 19 69 32 30 13 73 43 97 65 80 79 144 243 144 375
1 52 3 61 13 48 32 -42 121 -65 192 -49 43 10 62 18 150 62 17 8 51 25 76 37
62 30 139 100 183 166 l37 55 35 -68 c84 -163 242 -262 418 -262 99 0 169 22
249 77 63 42 147 131 147 154 0 5 5 9 10 9 6 0 10 -6 10 -12 0 -25 51 -121 82
-157 17 -20 50 -49 72 -64 37 -26 47 -28 102 -23 55 4 94 19 199 73 11 5 47
23 80 38 78 37 199 158 239 238 24 48 30 74 34 151 6 119 -12 185 -69 250 -61
69 -107 89 -201 90 -43 0 -78 3 -78 7 0 13 26 26 65 32 83 13 150 128 162 276
10 137 -41 246 -128 273 -55 16 -149 -2 -202 -39 -54 -38 -57 -40 -95 -53 -43
-17 -96 -72 -137 -145 -42 -75 -98 -245 -120 -362 -22 -124 -24 -133 -35 -133
-5 0 -11 8 -15 19 -14 44 -114 142 -178 174 -167 84 -338 71 -486 -38 -110
-81 -172 -203 -177 -350 l-4 -80 -42 -37 c-31 -26 -44 -33 -46 -22 -2 8 -6 14
-9 14 -3 0 -37 -29 -75 -65 -39 -36 -74 -62 -79 -59 -22 13 -39 81 -39 153 0
103 5 118 43 125 18 4 48 20 69 36 20 17 47 30 60 30 13 0 40 11 59 24 43 29
54 75 39 155 -18 96 -59 141 -129 141 -37 0 -112 -28 -128 -47 -10 -12 -16
-12 -44 2 -28 15 -37 15 -71 4 -22 -7 -48 -25 -59 -41 -11 -15 -24 -26 -28
-24 -4 3 -25 -3 -47 -13 -42 -19 -97 -84 -130 -153 -10 -21 -21 -38 -25 -38
-4 0 -10 17 -14 37 -12 64 -64 188 -88 210 -14 13 -42 22 -80 26 -62 6 -80 -3
-98 -50 -7 -19 -16 -23 -52 -23 -49 0 -71 -17 -82 -63 l-7 -28 -22 35 c-11 19
-33 44 -48 55 -40 32 -129 71 -161 71 -39 0 -95 -28 -114 -56 -10 -16 -25 -24
-44 -24 -20 0 -42 -13 -74 -44 -26 -24 -43 -36 -39 -27 4 9 9 39 12 66 9 118
-111 189 -225 134 -24 -12 -48 -30 -54 -40 -5 -10 -19 -19 -31 -19 -39 0 -108
-55 -138 -109 -16 -30 -26 -19 -34 35 -10 74 -42 121 -102 149 -81 38 -156 29
-214 -25 -18 -17 -40 -30 -49 -30 -9 0 -31 -9 -49 -20 -18 -11 -34 -20 -37
-20 -2 0 -11 15 -20 34 -9 19 -34 52 -56 74 l-40 39 32 34 c17 19 47 67 66
107 34 69 35 74 24 120 -15 59 -44 102 -90 132 -20 14 -38 25 -40 27 -2 1 8
12 22 24 15 11 27 26 27 33 0 7 13 22 30 34 17 13 34 39 41 62 7 24 18 40 27
40 9 0 23 7 33 16 16 15 18 11 24 -53 11 -97 38 -163 78 -190 46 -31 125 -31
192 1 58 27 70 37 146 126 76 88 110 144 149 245 l33 84 29 -24 c71 -60 305
-14 470 92 34 22 46 11 19 -16 -12 -12 -21 -32 -21 -46 0 -15 -6 -25 -15 -25
-8 0 -24 -10 -36 -22 -17 -19 -20 -31 -15 -71 6 -57 0 -77 -24 -77 -10 0 -28
-12 -39 -27 -18 -21 -20 -35 -16 -77 10 -82 14 -94 35 -101 28 -9 25 -29 -10
-63 -36 -37 -39 -76 -7 -103 27 -23 50 -24 82 -3 23 15 24 15 36 -25 17 -57
42 -81 85 -81 24 0 50 -10 77 -30 23 -16 62 -32 86 -36 39 -6 44 -5 38 10 -4
10 -7 20 -7 22 0 2 -8 4 -17 4 -19 0 -123 46 -123 54 0 19 22 56 34 56 31 0
55 48 54 111 -1 55 -3 62 -36 90 -27 24 -32 33 -21 40 8 5 17 9 21 9 17 0 20
51 4 75 -16 25 -16 27 13 64 33 42 39 76 18 105 -12 16 -10 22 15 46 28 28 37
73 18 85 -20 12 -43 81 -41 118 2 21 -3 44 -9 52 -10 12 -8 22 11 50 13 19 26
35 29 35 3 0 18 -33 34 -73 16 -39 37 -87 47 -104 10 -18 23 -51 29 -73 6 -22
19 -44 29 -50 30 -16 75 -128 88 -220 l5 -35 -44 3 c-53 4 -105 -27 -130 -78
-29 -57 -19 -140 17 -140 15 0 38 -34 29 -43 -3 -3 12 -11 33 -17 55 -17 113
1 152 45 40 46 43 114 8 167 -14 20 -26 57 -30 89 l-7 55 59 -58 c33 -32 65
-58 71 -58 6 0 20 -16 31 -35 12 -19 29 -35 39 -35 19 0 43 -23 34 -33 -3 -3
7 -22 22 -43 16 -21 34 -51 39 -68 10 -31 10 -31 -34 -46 -58 -19 -91 -65 -91
-126 0 -86 31 -121 113 -127 40 -4 45 -2 35 10 -8 10 -22 13 -40 9 -18 -3 -27
-2 -23 4 14 22 85 8 85 -17 0 -22 58 16 76 49 29 56 7 153 -42 178 -13 7 -26
26 -29 42 -9 37 -34 88 -45 88 -4 0 -10 6 -13 14 -9 23 32 6 50 -20 8 -13 23
-24 32 -24 9 0 61 -12 116 -26 151 -40 205 -48 218 -35 8 8 6 11 -8 11 -41 0
-195 44 -192 54 5 13 20 12 73 -8 52 -19 106 -8 145 30 29 28 38 54 18 54 -5
0 -7 5 -4 10 3 5 1 10 -5 10 -6 0 -8 5 -5 10 3 6 1 10 -4 10 -6 0 -11 6 -11
13 1 6 9 2 19 -10 11 -13 22 -23 25 -23 14 0 5 57 -14 87 -27 45 -64 66 -116
66 -82 0 -140 -69 -129 -154 l5 -46 -40 -12 c-23 -7 -51 -9 -63 -5 -36 11
-126 68 -127 80 0 20 29 38 43 27 24 -20 67 -23 101 -9 39 16 41 19 50 66 6
27 5 32 -4 20 -9 -12 -10 -11 -5 8 23 80 -100 124 -155 55 -15 -20 -20 -38
-18 -67 3 -35 -1 -43 -21 -53 -13 -7 -29 -13 -36 -13 -22 0 -150 109 -191 161
-41 54 -74 103 -74 111 0 4 9 8 20 8 12 0 20 -7 20 -17 0 -33 40 -84 76 -99
69 -29 169 10 160 62 -3 13 0 24 6 24 5 0 8 -7 4 -15 -3 -8 -1 -15 3 -15 5 0
12 18 16 40 16 94 -76 185 -162 160 -48 -13 -66 -27 -87 -67 -17 -33 -31 -38
-74 -27 -21 6 -43 42 -110 175 -1 3 22 5 52 5 59 -1 69 3 61 25 -4 10 -21 14
-57 13 -28 -1 -57 0 -64 3 -7 2 -22 30 -34 62 l-21 57 22 55 c37 92 47 149 38
217 -16 117 -82 203 -191 252 -53 23 -170 36 -224 24 -33 -7 -21 -9 71 -14
163 -10 238 -51 298 -164 30 -56 32 -217 3 -289 -21 -52 -27 -51 -46 6 -8 26
-15 36 -22 29 -10 -10 -7 -59 7 -114 13 -50 -77 -138 -142 -138 -33 0 -63 -17
-63 -36 0 -12 6 -15 24 -10 14 3 28 1 32 -6 4 -7 3 -8 -4 -4 -7 4 -12 1 -12
-8 0 -9 -3 -16 -8 -16 -4 0 -20 -11 -35 -25 -15 -14 -27 -23 -27 -20 0 4 -12
-2 -27 -13 -16 -10 -57 -30 -93 -44 -133 -51 -252 -68 -305 -42 -56 26 -57 32
-34 129 21 90 18 110 -17 103 -10 -2 -21 -17 -26 -36 -5 -18 -17 -36 -26 -39
-23 -9 -32 -23 -32 -54 0 -35 -8 -40 -39 -24 -44 23 -101 89 -134 156 -40 80
-79 102 -182 103 l-70 1 -3 -38 c-3 -32 -7 -37 -28 -37 -24 0 -24 -1 -25 -92
-1 -117 -25 -218 -55 -229 -14 -5 -29 -2 -44 8 -23 16 -23 18 -16 167 10 188
9 202 -10 231 -22 34 -89 57 -154 53 -54 -3 -55 -3 -60 -38 -4 -27 -10 -36
-27 -38 -20 -3 -23 -10 -24 -45 -1 -127 -36 -168 -63 -76 -9 28 -27 71 -41 94
-25 43 -25 43 -7 90 17 46 17 46 52 40 62 -12 323 -21 385 -13 206 26 212 28
219 60 8 43 26 30 45 -33 10 -30 23 -63 30 -74 11 -17 12 -17 7 -2 -55 173
-63 311 -25 424 24 75 72 156 116 197 94 89 267 129 358 83 11 -5 47 -35 80
-65 l60 -55 13 48 c8 26 10 50 5 54 -5 3 -14 17 -20 31 -7 14 -12 18 -12 10
-1 -8 -6 -32 -12 -53 -9 -32 -13 -36 -25 -26 -9 7 -12 20 -8 32 5 16 3 19 -14
14 -29 -7 -45 16 -37 52 7 34 60 121 74 121 5 0 15 -26 22 -57 13 -57 52 -113
80 -113 6 0 0 9 -14 20 -36 28 -49 82 -36 137 6 24 17 43 24 43 22 0 38 -57
32 -117 -6 -54 -5 -55 11 -32 31 45 6 155 -38 166 -26 7 -32 55 -16 136 9 46
16 180 20 372 8 339 10 321 -75 644 -28 106 -47 197 -42 202 5 5 23 0 41 -11
23 -15 34 -31 43 -65 14 -55 26 -65 39 -31 5 14 13 26 16 26 4 0 26 -16 50
-35 23 -19 48 -35 55 -35 17 0 7 87 -21 181 -23 75 -23 150 -2 171 6 6 44 13
85 16 l73 4 60 -87 c40 -59 60 -82 63 -70 8 42 -49 261 -92 357 -15 32 -22 60
-17 63 9 6 65 -50 130 -132 23 -29 44 -53 47 -53 11 0 -6 96 -26 157 -40 118
-157 290 -280 414 -88 87 -138 119 -252 159 -84 30 -96 36 -87 45 6 6 152 60
204 76 50 15 406 196 439 223 l30 25 -47 1 c-58 0 -62 14 -10 30 135 43 302
125 302 148 0 9 -212 32 -360 39 -104 5 -172 -7 -290 -54 -85 -33 -202 -92
-264 -131 -48 -31 -86 -41 -86 -24 0 13 66 72 145 129 100 72 204 132 326 186
106 47 229 111 389 202 125 71 244 165 223 178 -4 3 -70 11 -146 17 -172 15
-356 1 -519 -40 -62 -15 -120 -29 -128 -31 -32 -8 -12 22 70 107 112 116 240
235 315 292 33 25 62 49 65 52 3 4 34 26 70 50 99 66 223 164 213 167 -23 8
-406 -134 -549 -202 -86 -42 -159 -73 -162 -70 -6 6 19 57 100 210 48 90 85
174 124 285 14 41 58 142 96 223 39 81 68 150 65 153 -9 10 -82 -32 -269 -153
-81 -52 -92 -54 -84 -10 9 51 25 192 36 323 5 66 17 155 26 197 8 43 14 82 12
87 -6 18 -341 -279 -453 -402 -42 -46 -81 -84 -86 -86 -27 -10 5 214 47 326
31 82 30 88 -5 63 -16 -12 -57 -66 -90 -121 -34 -55 -66 -100 -71 -100 -10 0
-14 13 -30 95 -28 143 -140 475 -160 475 -5 0 -30 -28 -58 -62z m-1534 -1897
c-12 -19 -28 -19 -28 0 0 6 5 7 10 4 6 -3 10 -1 10 4 0 6 5 11 10 11 6 0 5 -8
-2 -19z m35 -41 c-3 -11 -9 -20 -15 -20 -5 0 -4 9 2 20 6 11 12 20 14 20 2 0
2 -9 -1 -20z m-23 6 c0 -3 -4 -8 -10 -11 -5 -3 -10 -1 -10 4 0 6 5 11 10 11 6
0 10 -2 10 -4z m165 -7 c3 -5 0 -6 -8 -3 -8 3 -18 0 -22 -5 -3 -6 -11 -9 -16
-5 -5 3 -7 9 -5 13 7 10 45 11 51 0z m72 -21 c13 -12 23 -25 23 -30 0 -13 -18
-9 -23 5 -2 6 -3 4 -2 -5 3 -18 -9 -31 -33 -34 -6 -1 -11 1 -9 4 2 4 9 20 17
35 12 25 12 30 0 37 -8 6 -11 10 -6 10 6 0 20 -10 33 -22z m-73 -13 c3 -8 1
-15 -3 -15 -5 0 -11 7 -15 15 -3 8 -1 15 3 15 5 0 11 -7 15 -15z m146 -21 c25
-40 22 -52 -9 -32 -13 8 -21 23 -21 40 0 36 4 35 30 -8z m-245 18 c6 -4 10
-13 9 -19 -1 -7 -2 -17 -3 -23 0 -5 -9 -10 -18 -10 -13 0 -14 3 -5 12 7 7 12
17 12 23 0 5 -5 3 -10 -5 -8 -12 -10 -11 -10 8 0 23 7 27 25 14z m-141 -43
c-3 -5 -15 -14 -27 -21 -19 -10 -20 -9 -10 4 7 8 9 19 5 23 -4 5 -1 5 7 0 9
-5 12 -4 7 3 -4 7 -17 12 -29 13 -21 0 -21 1 -2 9 21 8 59 -15 49 -31z m70 25
c12 -11 13 -20 6 -33 -5 -10 -6 -21 -3 -25 3 -3 2 -6 -3 -6 -17 0 -34 23 -34
44 0 16 3 17 12 8 7 -7 17 -12 23 -12 5 0 1 7 -9 15 -10 8 -22 12 -27 10 -4
-3 -10 -1 -14 5 -10 16 32 11 49 -6z m-134 -34 c5 0 11 6 13 13 4 9 6 9 6 0 1
-6 -3 -14 -9 -18 -5 -3 -6 -13 -3 -23 4 -12 3 -14 -5 -7 -6 6 -12 21 -15 35
-2 14 -2 19 0 13 3 -7 8 -13 13 -13z m275 -20 c3 -6 -1 -7 -9 -4 -18 7 -21 14
-7 14 6 0 13 -4 16 -10z m60 -38 c-6 -7 -34 29 -34 43 0 6 9 -1 20 -14 11 -13
17 -26 14 -29z m78 31 c-7 -3 -10 -10 -7 -18 3 -7 1 -16 -5 -20 -7 -3 -11 2
-11 14 0 15 -5 19 -17 15 -10 -3 -7 1 7 9 14 9 29 13 34 9 6 -3 5 -7 -1 -9z
m-207 -22 c22 -17 23 -31 1 -31 -6 0 -8 3 -4 6 8 8 -16 33 -25 27 -5 -2 -8 1
-8 6 0 16 9 14 36 -8z m284 4 c0 -8 -5 -15 -11 -15 -5 0 -7 5 -4 10 3 6 1 10
-4 10 -6 0 -11 -4 -11 -10 0 -5 -4 -10 -10 -10 -5 0 -7 7 -4 15 4 8 15 15 25
15 10 0 19 -7 19 -15z m-400 -5 c0 -5 -7 -7 -15 -3 -10 3 -15 0 -13 -8 2 -7
-6 -14 -19 -15 -15 -1 -20 3 -16 13 5 12 7 12 14 1 7 -10 9 -9 9 5 0 10 8 17
20 17 11 0 20 -4 20 -10z m220 6 c0 -11 -19 -15 -25 -6 -3 5 1 10 9 10 9 0 16
-2 16 -4z m-143 -73 c-11 -15 -41 -18 -32 -3 4 6 11 8 16 5 5 -4 6 8 3 27 -6
33 -6 33 9 8 9 -17 10 -29 4 -37z m294 7 c5 0 9 -4 9 -10 0 -5 -7 -10 -15 -10
-11 0 -15 10 -14 33 1 23 3 26 6 10 2 -13 9 -23 14 -23z m59 31 c0 -12 -20
-25 -27 -18 -7 7 6 27 18 27 5 0 9 -4 9 -9z m-433 -12 c6 -6 9 -18 6 -25 -6
-16 -43 -19 -43 -4 0 5 6 7 14 4 8 -3 17 -1 21 5 4 7 -6 11 -27 12 -27 0 -30
2 -13 9 27 12 29 12 42 -1z m143 -3 c0 -3 -4 -8 -10 -11 -5 -3 -10 -1 -10 4 0
6 5 11 10 11 6 0 10 -2 10 -4z m131 -23 c-12 -20 -14 -14 -5 12 4 9 9 14 11
11 3 -2 0 -13 -6 -23z m39 10 c0 -5 -7 -16 -15 -26 -7 -11 -11 -25 -9 -32 3
-7 -4 -15 -15 -18 -11 -3 -22 1 -25 9 -3 8 0 11 10 7 14 -5 20 12 7 20 -5 2
-2 2 5 1 6 -2 12 3 12 11 0 8 5 15 11 15 5 0 7 5 4 10 -3 6 -1 10 4 10 6 0 11
-3 11 -7z m-126 -14 c-3 -6 0 -16 7 -21 11 -8 10 -9 -3 -4 -10 3 -18 1 -18 -5
0 -6 -5 -7 -11 -4 -7 5 -4 14 7 26 19 21 29 25 18 8z m292 -34 c-1 -19 -4 -35
-8 -35 -5 0 -8 5 -8 10 0 6 -7 10 -15 10 -9 0 -12 6 -8 16 5 13 8 13 15 2 7
-9 8 -4 4 14 -5 20 -3 26 7 22 8 -3 13 -19 13 -39z m96 -30 c3 -13 2 -22 -3
-20 -4 3 -9 -5 -11 -17 -3 -20 -4 -20 -18 6 -13 26 -13 29 5 42 24 18 22 18
27 -11z m-225 -10 c-1 -14 -5 -25 -10 -25 -4 0 -19 0 -34 1 l-28 0 24 10 c18
7 27 6 34 -3 6 -9 7 -8 3 5 -3 11 -4 23 0 28 9 15 13 10 11 -16z m251 0 c-3
-3 -9 2 -12 12 -6 14 -5 15 5 6 7 -7 10 -15 7 -18z m-149 -58 l-2 -22 -4 23
c-2 12 -8 22 -13 22 -5 0 -6 -7 -3 -17 4 -11 3 -14 -6 -9 -7 5 -10 15 -7 25 5
12 2 11 -9 -3 -8 -11 -18 -16 -22 -12 -5 4 1 14 11 21 25 19 56 2 55 -28z m64
21 c9 -31 2 -33 -11 -3 -6 14 -8 25 -3 25 5 0 11 -10 14 -22z m-103 -28 c0 -5
-5 -10 -11 -10 -5 0 -7 5 -4 10 3 6 8 10 11 10 2 0 4 -4 4 -10z m183 -31 c-5
-5 -17 -3 -29 7 -19 15 -18 15 4 11 12 -3 22 0 23 6 0 7 3 7 6 -1 3 -8 1 -18
-4 -23z m-87 -164 c11 -10 13 -25 9 -44 -8 -36 12 -52 32 -25 12 17 16 15 63
-31 44 -43 63 -75 44 -75 -3 0 -29 15 -57 33 -29 19 -92 47 -142 62 -105 34
-115 40 -94 61 13 12 50 23 122 33 5 0 15 -6 23 -14z m-326 -85 c0 -6 -7 -22
-17 -36 -9 -14 -16 -39 -15 -55 0 -18 -5 -32 -14 -36 -21 -8 -17 -17 15 -36
30 -18 57 -24 31 -7 -10 7 -11 10 -2 10 7 0 17 -11 22 -24 5 -14 20 -26 37
-30 15 -4 80 -42 143 -84 301 -202 378 -282 182 -189 -158 74 -286 101 -379
78 -45 -12 -113 -49 -113 -62 0 -4 33 -10 73 -14 39 -3 99 -16 131 -26 66 -23
172 -74 180 -88 3 -5 -36 -29 -87 -54 -118 -58 -183 -124 -252 -258 -27 -52
-59 -111 -71 -131 -27 -43 -21 -51 27 -38 19 6 104 10 189 10 85 0 171 5 190
10 19 5 70 19 113 31 42 12 79 20 82 17 3 -3 -10 -29 -30 -58 -32 -48 -44 -80
-29 -80 4 0 28 16 54 35 53 39 60 41 60 21 0 -8 -23 -34 -52 -58 -140 -118
-177 -164 -178 -227 0 -13 -13 -40 -30 -61 -69 -87 -130 -241 -130 -327 0 -35
-10 -98 -21 -140 -13 -47 -23 -114 -24 -168 -2 -56 -11 -116 -24 -160 -12 -38
-21 -81 -21 -95 l0 -25 -20 30 c-95 141 -92 135 -81 167 6 17 11 63 11 103 0
43 9 104 22 151 13 47 21 102 19 135 -3 87 83 319 145 389 7 9 22 43 32 75 11
33 23 69 27 79 8 19 2 19 -199 14 l-208 -6 -29 26 c-17 15 -36 45 -44 67 -8
22 -14 35 -15 29 0 -8 -22 -10 -67 -6 -76 5 -103 15 -103 38 0 8 -4 13 -9 10
-4 -3 -19 3 -31 14 -28 25 -56 10 -40 -20 13 -25 13 -33 -2 -24 -7 4 -8 3 -4
-5 4 -6 11 -9 16 -6 5 3 17 -6 27 -20 10 -14 26 -35 36 -47 10 -12 15 -27 13
-34 -3 -8 0 -11 8 -8 8 3 18 -7 26 -25 7 -17 17 -31 22 -31 6 0 8 -7 5 -15 -4
-8 -1 -17 5 -21 7 -4 8 -3 4 4 -4 7 -5 12 -2 12 21 0 96 -205 96 -260 0 -7
-42 -23 -65 -25 -5 0 -15 -4 -22 -8 -6 -4 -18 -4 -26 -1 -20 7 -34 -16 -16
-27 7 -4 11 -11 7 -14 -7 -8 -98 79 -122 117 -10 15 -21 26 -25 23 -7 -4 -29
31 -70 111 -13 27 -18 30 -29 18 -15 -16 -10 -28 50 -116 21 -31 38 -61 38
-66 0 -5 18 -28 40 -51 22 -22 40 -47 40 -54 0 -6 -23 12 -50 42 -27 30 -47
58 -44 63 3 4 -2 11 -10 14 -9 3 -16 15 -16 26 0 10 -4 16 -10 13 -5 -3 -10 0
-10 7 0 7 -12 31 -27 53 -24 35 -25 43 -17 84 11 55 4 123 -14 129 -21 6 -44
-67 -50 -158 -3 -46 -8 -77 -11 -67 -14 39 -26 14 -38 -75 -7 -51 -14 -98 -15
-105 -1 -7 -5 -10 -10 -7 -4 3 -8 -7 -8 -22 0 -31 -37 -114 -51 -114 -5 0 -9
-5 -9 -11 0 -15 -62 -69 -87 -75 -13 -4 -20 -11 -17 -16 4 -6 1 -9 -7 -6 -8 3
-19 -6 -26 -21 l-11 -26 -2 25 c-4 67 0 105 11 109 8 2 8 5 1 10 -8 5 -7 20 2
51 8 28 15 39 19 30 3 -8 4 -3 1 11 -3 16 4 50 20 87 14 34 26 67 26 74 0 7 6
25 14 40 8 15 12 37 9 49 -5 17 -3 20 7 14 9 -6 11 -4 5 4 -4 7 -2 24 6 37 9
18 10 27 1 36 -8 8 -14 4 -22 -18 -16 -42 -40 -97 -50 -114 -5 -8 -18 -31 -28
-51 -24 -44 -79 -99 -98 -99 -9 0 -13 -4 -10 -8 7 -12 -52 -44 -67 -36 -6 4
-9 4 -5 -1 10 -11 -29 -38 -42 -30 -6 4 -7 -1 -3 -11 5 -14 3 -15 -18 -4 -23
13 -23 12 -10 -6 15 -19 14 -19 -5 0 -13 12 -15 20 -7 23 7 2 9 11 7 18 -7 18
35 205 45 205 4 0 13 17 19 39 7 21 19 44 27 51 8 7 15 16 15 21 0 12 48 58
54 51 3 -3 6 0 6 7 0 8 15 10 47 7 30 -3 41 -1 32 5 -12 7 -12 9 0 9 25 0 96
41 114 65 42 58 13 98 -38 51 -55 -51 -122 -73 -220 -74 -76 0 -86 1 -65 11
13 7 35 22 48 34 13 12 33 25 44 29 11 3 29 15 39 25 13 13 27 18 40 14 12 -4
18 -2 17 5 -3 12 65 42 94 42 9 -1 22 6 29 14 6 8 18 14 25 14 8 0 14 2 14 4
0 2 3 11 6 19 4 11 -4 16 -30 19 -20 2 -36 0 -36 -4 0 -12 -38 -10 -46 3 -3 6
-2 14 3 18 5 3 15 25 21 49 10 33 18 42 35 42 12 0 29 5 37 11 11 8 8 9 -15 4
l-30 -6 25 17 c14 10 28 22 32 28 7 11 -30 42 -39 32 -4 -3 -1 -6 5 -6 25 0
11 -19 -21 -29 -19 -7 -40 -23 -47 -36 -7 -13 -17 -22 -21 -19 -11 7 18 53 50
81 39 34 74 29 110 -14 49 -58 51 -62 51 -71 0 -5 14 -28 31 -52 28 -38 34
-42 62 -36 23 4 28 3 17 -4 -24 -15 -49 -12 -67 10 -27 31 -44 25 -39 -12 3
-18 5 -36 5 -40 1 -4 12 -15 26 -24 21 -13 28 -14 41 -4 12 11 12 15 2 22 -8
6 1 8 27 4 24 -3 34 -2 26 3 -10 7 -10 10 -1 16 7 4 15 3 19 -3 3 -5 7 24 9
66 2 75 -14 172 -30 172 -4 0 -4 7 -1 17 4 11 3 14 -5 9 -7 -4 -12 -3 -12 2 0
13 39 60 40 47 0 -10 22 -14 102 -16 51 -1 88 24 106 71 7 17 18 26 36 28 23
2 21 -3 -32 -56 -58 -59 -71 -87 -40 -87 34 0 223 180 257 245 33 64 26 120
-22 162 -19 17 -28 21 -79 32 -25 6 -28 11 -28 49 1 45 11 61 74 115 36 31 39
32 56 17 25 -22 41 -11 34 24 -6 26 0 32 73 80 75 49 113 63 113 41z m245
-130 c3 -5 4 -14 0 -20 -8 -13 -35 -1 -35 16 0 16 26 19 35 4z m88 -42 c-6
-11 -31 -10 -37 1 -3 5 5 8 18 7 13 0 22 -4 19 -8z m-1186 -368 c56 -84 133
-223 133 -242 0 -6 -13 8 -30 33 -75 111 -202 215 -192 157 3 -21 -11 -24 -26
-5 -6 7 -33 23 -60 36 l-48 23 32 35 c18 19 43 54 55 78 l23 43 31 -42 c17
-22 54 -75 82 -116z m520 4 c-3 -3 -12 -4 -19 -1 -8 3 -5 6 6 6 11 1 17 -2 13
-5z m-220 -121 c2 -6 -6 -17 -18 -23 -17 -10 -24 -9 -38 4 -14 15 -13 16 17
10 20 -4 32 -3 32 4 0 6 -6 9 -14 6 -8 -3 -17 0 -21 6 -5 8 0 11 16 8 12 -1
24 -8 26 -15z m-473 -270 c-4 -16 -11 -32 -15 -37 -11 -12 -12 -39 -1 -33 4 3
14 -2 22 -11 13 -14 12 -15 -3 -9 -9 3 -17 2 -17 -4 0 -6 -4 -7 -10 -4 -15 9
-12 62 5 95 19 37 27 38 19 3z m2319 -189 c45 -25 70 -46 73 -61 8 -31 -4
-106 -20 -128 -12 -17 -16 -17 -91 3 -85 23 -128 54 -151 109 -21 49 -17 79
14 103 37 30 89 22 175 -26z m293 -29 c12 -47 1 -55 -74 -55 -70 0 -92 10 -92
42 0 25 33 37 102 37 53 1 58 -1 64 -24z m-946 -14 c0 -5 -48 -33 -107 -62
-60 -29 -111 -55 -115 -57 -5 -2 -8 2 -8 9 0 17 26 35 114 80 78 38 116 48
116 30z m244 -110 c44 -80 125 -186 134 -176 4 4 12 50 19 102 7 52 14 98 17
101 10 10 45 -30 57 -65 17 -54 16 -58 -129 -270 -35 -52 -56 -44 -148 50 -45
45 -91 95 -102 111 -26 33 -28 85 -7 125 17 34 83 90 106 91 9 0 31 -28 53
-69z m-2214 19 c-8 -5 -19 -10 -25 -10 -5 0 -3 5 5 10 8 5 20 10 25 10 6 0 3
-5 -5 -10z m1957 -20 c31 -62 4 -146 -87 -265 -30 -38 -64 -88 -77 -110 -23
-38 -24 -39 -19 -10 12 63 25 169 21 173 -8 9 -23 -9 -29 -35 -3 -16 -13 -50
-20 -78 l-15 -50 0 58 c-1 54 -2 58 -21 52 -20 -6 -21 -4 -14 47 12 102 73
186 168 229 52 24 77 21 93 -11z m1002 2 c44 -33 64 -69 69 -127 4 -46 2 -55
-12 -55 -13 0 -15 -8 -11 -42 l5 -43 -30 60 c-29 58 -50 81 -50 53 0 -7 14
-53 30 -102 16 -50 27 -92 25 -95 -3 -2 -20 10 -39 28 -18 17 -57 42 -87 54
-69 29 -80 36 -107 71 -25 32 -29 95 -12 158 10 33 16 39 58 52 58 17 129 12
161 -12z m333 -89 c37 -43 77 -168 60 -185 -6 -6 -29 5 -62 28 -47 34 -51 40
-46 67 3 16 6 47 6 68 0 43 16 51 42 22z m-687 -22 c53 -24 105 -83 105 -120
0 -26 -40 -155 -52 -166 -3 -3 -8 6 -12 20 -12 48 -25 24 -28 -52 l-3 -78 -20
63 c-11 34 -24 62 -29 62 -5 0 -6 -30 -3 -71 7 -85 -1 -82 -53 15 -49 92 -60
88 -34 -14 5 -21 -3 -16 -45 27 -64 64 -66 93 -16 188 65 121 84 145 119 145
17 0 49 -9 71 -19z m563 -59 c40 -72 51 -150 30 -201 l-14 -34 -13 52 c-7 28
-17 51 -22 51 -5 0 -9 -27 -9 -60 0 -33 -4 -60 -10 -60 -16 0 -49 38 -56 64
-6 25 20 228 32 247 11 19 28 3 62 -59z m-1112 -44 c35 -27 57 -53 107 -127
43 -64 42 -75 -4 -178 -18 -40 -34 -63 -44 -63 -10 0 -23 -16 -32 -40 -12 -31
-21 -40 -40 -40 -22 0 -23 4 -25 73 -1 39 -2 87 -1 105 0 19 -4 31 -11 29 -17
-6 -28 -77 -22 -145 6 -74 -5 -74 -39 -1 -23 51 -35 54 -35 10 -1 -25 -1 -26
-16 -6 -36 45 -66 127 -61 164 8 65 141 241 181 241 8 0 26 -10 42 -22z m-411
-20 c3 -13 6 -79 8 -148 2 -115 0 -130 -22 -178 -14 -29 -30 -52 -36 -52 -25
0 -64 42 -81 86 -16 43 -16 48 1 102 30 98 93 212 116 212 5 0 11 -10 14 -22z
m1372 -60 c-3 -8 -6 -5 -6 6 -1 11 2 17 5 13 3 -3 4 -12 1 -19z m-2460 -25
c-3 -10 -5 -4 -5 12 0 17 2 24 5 18 2 -7 2 -21 0 -30z m2301 -2 c20 -10 63
-45 95 -76 53 -54 57 -61 57 -104 -1 -25 -7 -59 -14 -76 l-13 -30 -8 38 c-12
61 -23 43 -30 -50 -9 -124 -8 -119 -25 -98 -9 11 -10 16 -2 11 21 -13 14 46
-13 100 -14 27 -36 63 -51 79 l-25 30 6 -30 c3 -16 19 -58 35 -93 24 -51 26
-61 11 -53 -10 6 -23 17 -31 25 -14 18 -40 21 -40 6 0 -15 -118 47 -129 68
-11 21 -9 31 26 152 14 47 32 93 41 103 20 22 64 22 110 -2z m470 -29 c53 -53
78 -153 53 -216 -6 -15 -10 -11 -26 23 -26 59 -39 52 -30 -16 l7 -58 -41 40
c-53 50 -64 90 -50 175 6 36 13 71 15 78 6 22 33 13 72 -26z m-2331 -34 c4 -7
8 -28 9 -46 2 -30 1 -32 -14 -20 -15 11 -15 11 -5 -3 13 -16 9 -57 -28 -301
-14 -92 -4 -135 17 -73 l14 40 -4 -40 c-2 -22 -6 -47 -8 -55 -3 -8 -3 -12 -1
-7 12 21 68 4 118 -35 6 -5 22 -17 37 -28 15 -12 41 -43 59 -70 35 -55 49 -56
49 -5 0 37 8 65 19 65 4 0 18 -21 31 -47 13 -27 26 -50 29 -53 21 -18 51 -73
65 -120 20 -67 57 -142 71 -147 6 -2 17 13 24 32 7 19 18 35 25 35 7 0 26 -28
42 -62 30 -65 126 -170 161 -176 42 -8 111 -49 160 -97 51 -50 53 -53 53 -106
-1 -41 -3 -50 -11 -36 -5 9 -14 17 -20 17 -5 0 -27 18 -47 40 -30 30 -43 38
-61 33 -36 -9 -46 -44 -27 -95 l16 -43 -4 53 c-7 97 48 79 100 -33 35 -76 42
-105 24 -105 -5 0 -10 7 -10 15 0 24 -49 115 -61 115 -16 0 -2 -65 27 -122 29
-57 18 -62 -25 -10 l-31 37 5 -65 c3 -36 8 -87 11 -115 3 -38 2 -46 -7 -35 -8
11 -9 -5 -4 -63 6 -78 0 -115 -31 -184 -8 -17 -14 -37 -14 -45 0 -8 -4 -18 -9
-24 -5 -5 -12 -20 -16 -34 -5 -17 3 -11 24 20 30 44 71 153 71 191 0 25 5 24
49 -11 l38 -31 -21 -58 c-18 -52 -26 -63 -71 -89 -27 -17 -64 -45 -81 -64 -17
-18 -44 -44 -60 -58 -30 -25 -94 -118 -94 -137 0 -5 -51 -35 -112 -67 -62 -31
-100 -47 -84 -34 17 12 41 36 55 52 14 17 42 48 62 70 59 67 74 102 73 181 0
80 -12 108 -57 135 -64 40 -156 24 -372 -64 -103 -42 -110 -47 -113 -75 -2
-22 -10 -32 -32 -39 -27 -10 -28 -12 -19 -52 5 -24 14 -51 20 -62 13 -24 3
-39 -78 -128 l-60 -64 -45 29 -46 29 24 48 c36 72 33 128 -10 176 -34 36 -36
37 -120 41 l-86 3 -10 37 c-47 166 -33 304 59 601 69 220 76 345 30 550 -30
136 -29 260 2 325 18 37 30 51 48 53 14 2 35 10 47 18 26 18 69 10 99 -17 27
-24 69 -33 92 -20 17 10 17 10 1 11 -13 0 -18 8 -18 28 0 15 -9 61 -20 102
-23 87 -25 155 -8 245 10 50 17 66 35 74 25 12 30 30 12 48 -9 9 -6 10 11 6
19 -5 22 -3 17 10 -7 20 8 23 20 5z m-131 -15 c21 -28 16 -39 -6 -15 -11 12
-20 24 -20 27 0 11 13 4 26 -12z m1515 -48 c19 -12 63 -46 97 -74 56 -47 62
-55 62 -90 0 -41 -47 -185 -74 -227 -19 -28 -42 -33 -31 -6 3 9 9 40 12 67 6
57 -7 53 -27 -7 -12 -40 -30 -51 -30 -18 0 38 -22 120 -31 114 -5 -3 -9 -35
-9 -72 0 -63 -1 -65 -16 -44 -8 12 -19 22 -25 22 -16 0 -10 -26 12 -54 31 -39
6 -31 -52 17 -76 61 -94 90 -94 145 1 58 47 178 88 228 34 40 55 40 118 -1z
m-1848 -7 c-6 -24 -33 -68 -33 -55 0 12 28 77 34 77 2 0 2 -10 -1 -22z m1260
-70 c82 -109 97 -205 52 -325 -31 -82 -40 -92 -31 -35 5 33 3 43 -6 40 -18 -6
-47 -94 -48 -143 0 -30 -3 -36 -10 -25 -5 8 -10 68 -10 133 0 64 -4 117 -9
117 -14 0 -21 -45 -23 -140 -1 -86 -2 -85 -28 9 -8 29 -18 45 -32 49 -19 5
-20 10 -15 77 4 50 16 98 42 161 50 122 75 139 118 82z m1405 -58 c89 -94 99
-126 69 -223 l-23 -72 -23 58 c-38 93 -50 71 -24 -43 l6 -25 -30 28 c-37 35
-49 24 -22 -20 11 -18 17 -33 12 -33 -15 0 -68 37 -102 71 l-33 34 5 85 c3 47
11 101 18 120 16 47 47 90 65 90 8 0 45 -32 82 -70z m-2715 31 c-17 -29 -63
-65 -98 -76 l-20 -7 20 13 c11 7 38 32 60 56 47 49 61 55 38 14z m1064 -93 c9
-18 17 -55 17 -83 0 -100 -68 -177 -95 -108 -20 50 20 223 51 223 5 0 17 -15
27 -32z m1191 -30 c36 -13 74 -40 119 -83 l66 -63 -6 -73 c-7 -80 -21 -108
-30 -60 -11 54 -25 33 -32 -46 -9 -116 -18 -130 -38 -63 -19 63 -76 159 -95
160 -9 0 -8 -9 4 -37 63 -145 69 -180 22 -135 -17 17 -35 29 -39 26 -9 -5 30
-64 42 -64 4 0 9 -7 13 -15 11 -30 -39 8 -139 103 l-97 93 4 62 c4 70 42 162
83 202 27 28 27 28 123 -7z m-2418 12 c0 -5 -4 -10 -10 -10 -5 0 -10 5 -10 10
0 6 5 10 10 10 6 0 10 -4 10 -10z m1791 -84 c67 -51 129 -131 129 -166 1 -24
-54 -190 -62 -190 -5 0 -8 11 -8 24 0 14 -4 27 -9 30 -14 9 -21 -31 -21 -118
0 -44 -3 -77 -6 -74 -3 3 -12 32 -21 64 -8 32 -26 79 -39 103 -13 25 -24 51
-24 57 0 6 -7 17 -15 24 -12 10 -15 10 -15 -1 0 -13 39 -143 55 -184 5 -11 -7
-1 -26 22 -35 43 -67 58 -54 26 4 -13 -2 -11 -22 8 -15 14 -45 37 -65 53 -21
15 -40 37 -44 50 -11 46 55 240 95 277 41 39 98 37 152 -5z m1283 5 c35 -36
56 -107 56 -185 0 -85 -12 -96 -35 -36 -24 63 -39 64 -32 3 5 -47 5 -48 -13
-25 -17 20 -40 30 -40 17 0 -3 9 -24 21 -46 11 -23 18 -43 15 -46 -11 -11 -86
48 -92 72 -10 41 62 275 84 275 5 0 21 -13 36 -29z m-283 -197 c80 -61 86 -76
71 -175 -12 -86 -31 -137 -32 -86 0 51 -18 27 -36 -48 l-18 -76 -39 78 c-21
43 -43 82 -48 87 -17 18 -20 -2 -6 -35 7 -19 17 -47 21 -64 7 -28 7 -29 -12
-12 -26 24 -35 21 -28 -10 l7 -26 -38 33 c-58 51 -66 66 -60 115 8 58 63 225
83 253 23 33 60 24 135 -34z m-1486 -11 c58 -105 86 -253 50 -267 -8 -3 -15
-18 -16 -33 0 -15 -4 -36 -8 -46 -5 -15 -10 -11 -23 20 -8 21 -18 46 -21 56
-12 33 -30 19 -23 -18 11 -58 -7 -40 -32 32 -35 99 -40 197 -14 256 28 63 52
63 87 0z m-142 -100 c-2 -76 -7 -141 -12 -146 -27 -27 -56 104 -40 186 9 51
32 97 48 97 4 0 6 -62 4 -137z m938 106 c51 -17 175 -115 189 -150 23 -54 -6
-208 -38 -205 -11 0 -18 -7 -20 -21 -5 -37 -16 -26 -36 37 -16 54 -31 79 -41
69 -4 -5 31 -199 40 -221 5 -13 2 -18 -9 -18 -8 0 -18 11 -22 25 -7 29 -80 98
-95 89 -6 -4 -6 -11 2 -20 19 -23 1 -29 -24 -8 -12 11 -41 33 -65 49 -67 44
-77 71 -62 167 16 101 53 175 100 200 41 21 38 21 81 7z m-551 -154 c37 -19
157 -158 177 -204 14 -32 13 -37 -16 -96 -17 -34 -31 -68 -31 -74 0 -25 -18 0
-24 34 -12 64 -25 36 -28 -60 -2 -76 -6 -93 -16 -86 -8 5 -20 35 -27 67 -18
80 -45 154 -56 154 -12 0 -11 -37 2 -83 11 -40 4 -63 -11 -37 -5 9 -36 38 -71
65 l-61 50 5 61 c7 70 41 180 64 207 20 21 55 22 93 2z m1470 -10 c14 -7 39
-27 55 -45 27 -28 30 -37 29 -93 -2 -71 -24 -139 -56 -173 l-23 -23 -10 46
c-6 26 -16 48 -23 51 -10 3 -12 -17 -8 -90 4 -67 3 -85 -4 -63 -5 17 -20 42
-32 55 l-23 25 -3 -23 c-3 -20 -6 -19 -38 19 -44 52 -49 77 -29 125 9 21 25
67 36 100 10 34 28 73 40 88 22 28 35 28 89 1z m-545 -105 c51 -24 151 -117
164 -153 16 -42 13 -80 -10 -144 -26 -69 -42 -91 -37 -49 2 17 -2 31 -9 33
-17 6 -33 -37 -34 -90 l-1 -42 -9 50 c-14 88 -56 172 -75 152 -3 -3 6 -42 21
-86 15 -45 25 -86 23 -92 -2 -7 -9 6 -16 29 -14 45 -69 99 -85 83 -6 -6 -1
-21 15 -43 44 -58 42 -61 -22 -27 -88 48 -120 80 -120 119 0 45 27 146 55 207
36 76 67 88 140 53z m-563 -126 c57 -30 202 -135 225 -164 7 -8 13 -25 13 -38
0 -21 -64 -176 -82 -196 -4 -6 -8 16 -8 47 0 64 -16 76 -26 20 -3 -21 -14 -65
-24 -98 l-18 -60 -20 45 c-61 137 -73 160 -83 160 -11 0 -10 -5 22 -109 11
-35 17 -66 14 -69 -6 -6 -35 23 -87 86 -27 33 -47 28 -28 -7 5 -11 10 -22 10
-26 0 -8 -55 22 -74 40 -64 64 -25 284 64 359 36 30 59 32 102 10z m-451 -120
c13 -16 12 -16 -7 -6 -11 6 -27 19 -35 28 -13 16 -12 16 7 6 11 -6 27 -19 35
-28z m1407 -26 c69 -53 82 -73 82 -124 l0 -42 -36 8 c-74 17 -221 -26 -280
-81 -11 -10 -23 -19 -27 -19 -15 0 -6 43 22 103 68 150 85 178 110 192 35 20
66 11 129 -37z m-509 -129 c75 -33 159 -108 182 -163 11 -25 9 -34 -19 -86
-18 -32 -32 -67 -32 -78 0 -12 -4 -24 -10 -27 -5 -3 -10 -16 -11 -28 -1 -24
-4 -18 -13 26 -11 49 -29 31 -23 -23 6 -49 -7 -110 -23 -110 -10 0 -38 72 -70
178 -12 40 -26 72 -32 72 -24 0 21 -191 57 -247 28 -42 -5 -25 -62 33 -54 53
-81 65 -54 23 20 -33 6 -33 -57 1 -112 60 -134 125 -83 252 36 90 84 172 114
194 26 18 70 12 136 -17z m-641 -184 c33 -72 62 -183 71 -270 6 -54 7 -103 4
-109 -7 -11 -38 73 -54 147 -16 69 -33 60 -26 -13 4 -33 10 -73 13 -88 l7 -27
-23 20 c-62 55 -92 168 -76 279 12 75 61 111 84 61z m229 -102 c56 -73 47
-134 -36 -247 -43 -58 -68 -74 -55 -33 13 35 10 80 -4 85 -8 2 -16 -6 -20 -19
-4 -16 -10 10 -18 72 -7 58 -23 123 -39 160 -44 107 -48 104 55 57 63 -29 100
-52 117 -75z m-384 -119 c33 -36 55 -103 38 -114 -8 -4 -11 -16 -6 -29 9 -30
-4 -26 -47 14 -36 33 -38 39 -38 95 0 69 13 77 53 34z m584 -78 c77 -21 193
-77 205 -100 19 -35 -37 -65 -152 -81 l-45 -6 -34 53 c-36 56 -51 52 -31 -8 7
-19 10 -38 7 -41 -5 -5 -136 13 -169 23 -29 9 -21 38 23 88 41 46 99 85 129
85 8 1 38 -5 67 -13z m-472 -185 c28 -11 62 -23 77 -26 l26 -5 -15 -39 -15
-39 -33 19 c-18 11 -56 22 -84 26 -28 3 -51 8 -51 11 0 23 26 82 34 78 6 -2
34 -14 61 -25z m16 -207 c111 -50 144 -115 137 -269 -4 -107 -22 -144 -87
-190 -39 -27 -51 -30 -136 -33 -148 -6 -238 35 -286 130 -32 62 -34 117 -10
198 19 60 31 82 75 125 33 33 66 56 91 63 58 16 149 6 216 -24z m1815 -92
c-10 -11 -16 -12 -16 -4 0 7 5 12 10 12 6 0 11 10 11 23 1 18 2 19 6 3 3 -10
-2 -26 -11 -34z m-2406 -1 c0 -37 -53 -84 -152 -136 -61 -32 -69 -40 -64 -60
5 -18 0 -25 -24 -35 -30 -12 -41 -42 -20 -55 16 -10 12 -23 -9 -35 -22 -11
-117 15 -189 53 l-43 23 47 59 c26 33 56 75 67 93 14 23 24 31 37 27 10 -3 73
17 141 44 79 32 140 50 167 51 40 0 42 -1 42 -29z m1568 -51 c26 -21 57 -47
70 -57 l24 -18 -30 -86 c-37 -107 -58 -149 -86 -171 -27 -22 -42 -22 -51 0 -6
16 15 372 23 372 2 0 24 -18 50 -40z m771 19 c-22 -13 -31 -11 -17 5 7 8 17
12 22 9 4 -3 2 -9 -5 -14z m51 -14 c0 -8 -4 -15 -10 -15 -5 0 -7 7 -4 15 4 8
8 15 10 15 2 0 4 -7 4 -15z m-3129 -27 c28 -35 24 -57 -16 -74 -19 -7 -46 -14
-60 -14 -25 0 -26 2 -20 33 14 63 23 77 51 77 15 0 34 -10 45 -22z m3145 -43
c-18 -14 -18 -15 -2 -15 9 0 15 -4 12 -9 -4 -5 -3 -16 0 -25 5 -12 11 -13 27
-5 21 9 21 9 4 -5 -29 -23 -88 4 -66 30 6 8 8 14 3 14 -5 0 0 7 10 15 11 8 22
15 25 15 3 0 -3 -7 -13 -15z m-78 -31 c0 -14 -4 -21 -8 -15 -3 7 -15 9 -26 6
-13 -4 -12 -2 4 6 12 7 22 16 22 21 0 4 2 8 4 8 2 0 4 -12 4 -26z m-2944 -48
l38 -34 -53 -42 c-103 -81 -173 -101 -203 -58 -28 39 -20 55 32 68 35 8 57 23
87 55 22 25 45 45 51 45 6 0 27 -15 48 -34z m770 -17 c11 -57 8 -67 -28 -79
-32 -10 -38 -9 -76 19 -37 26 -39 31 -23 40 10 5 34 19 53 30 50 29 66 26 74
-10z m2121 -10 c5 -23 10 -28 16 -18 4 7 10 11 13 8 9 -8 -11 -32 -22 -25 -6
3 -17 20 -26 36 -12 24 -12 30 -1 30 7 0 17 -14 20 -31z m-3065 6 c-33 -19
-60 -19 -60 0 0 11 11 15 43 15 41 -1 42 -1 17 -15z m3160 11 c0 -2 -7 -6 -15
-10 -8 -3 -15 -1 -15 4 0 6 7 10 15 10 8 0 15 -2 15 -4z m-130 -16 c0 -5 -5
-10 -11 -10 -5 0 -7 5 -4 10 3 6 8 10 11 10 2 0 4 -4 4 -10z m157 -25 c0 -10
-6 -14 -14 -10 -8 3 -17 5 -19 5 -3 0 -2 5 1 10 10 16 32 12 32 -5z m-143 -12
c3 -7 13 -13 22 -13 21 0 10 -13 -14 -16 -19 -3 -62 22 -62 36 0 14 49 8 54
-7z m168 -15 c-7 -7 -12 -8 -12 -2 0 14 12 26 19 19 2 -3 -1 -11 -7 -17z m-49
-43 c-3 -9 -8 -14 -10 -11 -3 3 -2 9 2 15 9 16 15 13 8 -4z m-33 -15 c-7 -14
-4 -17 20 -17 16 0 27 3 25 7 -2 4 2 7 9 7 8 0 12 -6 9 -14 -6 -15 -71 -18
-93 -3 -10 6 -11 10 -2 10 6 0 12 5 12 11 0 5 -4 7 -10 4 -5 -3 -10 -1 -10 4
0 6 11 10 24 9 19 -2 23 -6 16 -18z m-78 -12 c-7 -7 -12 -8 -12 -2 0 14 12 26
19 19 2 -3 -1 -11 -7 -17z m-86 -42 c1 -19 -4 -25 -25 -28 -19 -3 -28 0 -28 9
0 8 6 12 13 9 8 -3 16 0 20 6 4 6 3 8 -4 4 -6 -3 -14 -1 -18 5 -4 7 -3 9 2 6
7 -4 39 7 39 13 0 0 1 -11 1 -24z m-2335 -33 c57 -92 90 -262 65 -340 -11 -33
-58 -30 -118 8 -86 55 -144 146 -135 213 5 35 16 51 72 104 37 34 71 62 76 62
5 0 23 -21 40 -47z m2442 12 c-3 -9 -8 -14 -10 -11 -3 3 -2 9 2 15 9 16 15 13
8 -4z m112 -26 c-4 -5 -1 -9 5 -9 6 0 9 -4 5 -10 -3 -5 -12 -7 -21 -3 -10 4
-12 9 -4 18 5 6 6 16 2 20 -4 5 -1 5 6 1 7 -4 10 -12 7 -17z m-130 1 c4 -6 11
-8 16 -5 16 11 9 -5 -12 -26 l-22 -22 7 26 c4 16 1 27 -7 30 -9 4 -9 6 0 6 6
1 15 -4 18 -9z m105 6 c0 -3 -4 -8 -10 -11 -5 -3 -10 -1 -10 4 0 6 5 11 10 11
6 0 10 -2 10 -4z m-217 -60 c-4 -5 2 -7 13 -3 18 7 18 7 0 -8 -24 -18 -37 -8
-29 24 4 16 8 19 14 10 4 -7 5 -17 2 -23z m51 18 c4 -9 4 -19 1 -22 -3 -3 -5
0 -5 6 0 7 -7 12 -16 12 -8 0 -12 5 -9 10 9 15 22 12 29 -6z m110 -46 c-3 -4
2 -8 10 -8 10 0 16 9 16 21 0 23 21 22 28 -2 3 -11 2 -11 -7 1 -9 12 -11 12
-11 1 0 -7 -11 -24 -25 -36 -20 -20 -26 -21 -36 -9 -10 12 -9 13 5 8 12 -5 15
-2 10 10 -3 9 -10 13 -15 10 -13 -8 -11 5 4 20 12 14 31 0 21 -16z m-101 -50
c-9 -10 -13 -18 -8 -18 4 0 16 9 25 20 14 16 19 17 23 6 6 -14 -38 -40 -53
-31 -13 8 0 42 16 42 11 0 11 -4 -3 -19z m160 15 c-7 -2 -13 -12 -13 -20 0 -9
-3 -14 -6 -10 -10 10 4 37 18 36 10 0 10 -2 1 -6z m-99 -68 c-10 -8 -23 -14
-29 -14 -5 0 -1 6 9 14 11 8 24 15 30 15 5 0 1 -7 -10 -15z m-79 -5 c3 -6 -1
-7 -9 -4 -18 7 -21 14 -7 14 6 0 13 -4 16 -10z m209 -29 c-8 -9 -22 12 -17 26
6 15 7 14 13 -3 4 -10 6 -21 4 -23z m-219 -27 c-24 -18 -57 -15 -63 6 -4 12
-2 13 9 3 7 -7 20 -13 29 -12 9 0 10 2 3 6 -10 3 -10 9 0 24 10 17 13 17 27 3
13 -14 13 -17 -5 -30z m105 34 c0 -7 -10 -18 -23 -24 -19 -8 -23 -7 -23 8 0
11 6 16 13 14 7 -3 13 -1 13 4 0 6 5 10 10 10 6 0 10 -6 10 -12z m136 -29
l-16 -23 0 22 c0 12 5 22 11 22 5 0 7 6 3 13 -5 9 -4 9 6 0 10 -9 9 -16 -4
-34z m-46 10 c0 -5 5 -7 10 -4 6 3 10 1 10 -4 0 -14 -13 -14 -28 1 -6 6 -14 9
-18 6 -3 -4 7 -13 23 -22 22 -12 24 -15 9 -16 -20 0 -56 27 -56 42 0 4 11 8
25 8 14 0 25 -5 25 -11z m-36 -101 c-19 -20 -44 -24 -44 -7 0 5 5 7 10 4 6 -3
10 4 10 17 0 19 -2 20 -11 8 -8 -12 -9 -9 -4 10 5 23 5 23 -8 8 -8 -10 -17
-15 -20 -11 -10 10 -8 25 2 18 5 -3 12 -1 16 5 3 5 1 10 -5 10 -6 0 -8 4 -5
10 3 5 22 -5 41 -22 32 -30 33 -32 18 -50z m2685 31 c6 -18 10 -55 10 -83 l-1
-51 -9 57 c-4 32 -13 67 -19 77 -12 24 -13 31 -1 31 5 0 14 -14 20 -31z
m-4369 -28 c17 -33 11 -108 -15 -178 -43 -113 -49 -106 -59 74 -5 87 -4 93 16
108 30 20 45 19 58 -4z m3439 -377 c19 -13 22 -22 17 -48 -9 -49 -90 -286 -97
-286 -10 0 -78 181 -88 233 -7 39 -5 86 3 87 0 0 19 7 41 15 53 19 95 19 124
-1z m196 -100 c88 -87 89 -128 0 -160 -85 -31 -248 -84 -251 -81 -4 4 73 223
90 255 34 66 83 62 161 -14z m-401 -26 c43 -67 106 -193 106 -211 0 -12 -11
-12 -72 0 -39 7 -73 12 -75 10 -2 -2 27 -12 64 -22 103 -27 103 -29 20 -115
-88 -91 -121 -114 -153 -106 -54 14 -104 142 -84 217 11 40 15 42 75 40 27 -1
25 1 -15 17 -34 13 -46 24 -48 42 -10 67 65 180 119 180 24 0 35 -9 63 -52z
m-3232 -19 c23 -43 23 -145 3 -264 -17 -97 -31 -133 -47 -117 -5 5 -12 95 -15
200 -5 149 -3 195 7 207 18 22 32 15 52 -26z m1042 -131 c-3 -4 -14 -8 -25 -8
-11 0 -29 -5 -40 -11 -33 -17 -40 -6 -17 27 22 31 23 31 55 16 18 -8 30 -19
27 -24z m2702 -19 c14 -16 19 -36 19 -80 -1 -67 -26 -112 -67 -117 -29 -4
-293 127 -281 139 17 17 220 78 264 78 35 1 51 -4 65 -20z m552 -81 c41 -81
40 -245 -2 -261 -35 -14 -41 9 -44 164 -4 168 3 183 46 97z m-750 -73 c127
-66 147 -83 138 -118 -15 -63 -92 -117 -164 -117 -50 0 -61 16 -90 135 -36
152 -37 155 -13 155 12 0 69 -25 129 -55z m-160 -2 c43 -203 45 -213 29 -237
-31 -46 -116 -42 -183 9 -51 39 -47 70 23 152 75 89 106 123 115 123 3 0 11
-21 16 -47z m-1547 -381 c-1 -31 -7 -77 -13 -102 -17 -69 -67 -170 -85 -170
-26 0 -72 57 -66 83 6 24 155 255 162 250 3 -2 3 -29 2 -61z m-282 -302 c11
-24 11 -24 -3 -6 -9 11 -16 24 -16 30 0 12 5 7 19 -24z"/>
<path d="M4840 8490 c0 -5 5 -10 10 -10 6 0 10 5 10 10 0 6 -4 10 -10 10 -5 0
-10 -4 -10 -10z"/>
<path d="M4252 7950 c-31 -29 -31 -103 -1 -124 12 -8 28 -12 35 -9 8 3 14 0
14 -7 0 -18 50 -3 78 22 31 29 30 81 -3 113 -31 32 -91 34 -123 5z"/>
<path d="M4250 7566 c0 -8 -4 -18 -10 -21 -6 -3 -8 2 -5 12 3 10 0 7 -7 -7 -7
-14 -15 -27 -19 -30 -48 -38 -69 -62 -64 -70 8 -14 52 8 70 37 9 12 24 23 34
23 24 0 34 38 15 57 -12 13 -14 12 -14 -1z"/>
<path d="M4328 7513 c6 -2 18 -2 25 0 6 3 1 5 -13 5 -14 0 -19 -2 -12 -5z"/>
<path d="M4125 7420 c3 -5 8 -10 11 -10 2 0 4 5 4 10 0 6 -5 10 -11 10 -5 0
-7 -4 -4 -10z"/>
<path d="M4230 7319 c-19 -4 -41 -6 -48 -4 -13 5 -52 -24 -52 -39 0 -5 23 -6
53 -2 82 11 127 25 127 41 0 17 -25 18 -80 4z"/>
<path d="M4251 7269 c-13 -5 -33 -7 -45 -4 -17 5 -18 4 -6 -4 10 -7 11 -11 3
-11 -7 0 -13 -4 -13 -10 0 -5 12 -10 26 -10 14 0 23 -4 19 -10 -13 -21 11 -8
28 16 23 31 19 44 -12 33z"/>
<path d="M4170 7131 c0 -6 4 -13 10 -16 6 -3 7 1 4 9 -7 18 -14 21 -14 7z"/>
<path d="M3300 6950 c0 -5 5 -10 10 -10 6 0 10 5 10 10 0 6 -4 10 -10 10 -5 0
-10 -4 -10 -10z"/>
<path d="M3354 6816 c-6 -7 -21 -34 -33 -60 -11 -26 -25 -45 -30 -42 -5 3 -11
-1 -14 -8 -3 -8 -2 -16 3 -18 5 -2 -3 -27 -16 -57 -14 -29 -26 -70 -27 -90 -2
-32 1 -36 22 -36 19 0 24 6 26 30 2 17 8 41 13 55 10 24 11 24 11 3 1 -13 5
-23 10 -23 5 0 12 -8 14 -17 3 -12 5 -9 6 8 0 14 11 34 23 45 12 10 18 13 14
6 -7 -11 -4 -12 13 -3 11 7 21 21 21 32 0 11 5 17 10 14 6 -3 10 -1 10 4 0 14
-13 14 -28 -1 -9 -9 -12 -8 -12 8 -1 19 -30 67 -30 48 0 -5 -4 -3 -9 4 -5 9
-11 -5 -16 -40 -5 -41 -9 -49 -15 -33 -5 11 -9 27 -9 35 -1 13 0 13 10 0 8
-12 9 -12 8 5 -4 30 11 66 23 59 6 -4 8 -2 4 4 -3 5 5 24 19 40 14 16 25 33
25 36 0 11 -35 5 -46 -8z m19 -141 c-3 -9 -8 -14 -10 -11 -3 3 -2 9 2 15 9 16
15 13 8 -4z"/>
<path d="M3580 6781 c0 -6 4 -13 10 -16 6 -3 7 1 4 9 -7 18 -14 21 -14 7z"/>
<path d="M3291 6744 c0 -11 3 -14 6 -6 3 7 2 16 -1 19 -3 4 -6 -2 -5 -13z"/>
<path d="M3901 6694 c0 -11 3 -14 6 -6 3 7 2 16 -1 19 -3 4 -6 -2 -5 -13z"/>
<path d="M3567 6510 c-14 -20 -17 -21 -17 -6 0 12 -5 16 -16 12 -9 -3 -18 -6
-20 -6 -11 0 -2 -31 10 -36 8 -3 12 -13 9 -25 -8 -30 24 -24 41 9 8 15 15 23
16 19 0 -4 -8 -22 -17 -40 -10 -18 -18 -42 -18 -53 -1 -20 2 -19 28 9 36 39
60 94 48 114 -6 11 -10 12 -15 4 -11 -16 -24 -13 -28 7 -3 14 -6 13 -21 -8z"/>
<path d="M3500 6461 c0 -6 4 -13 10 -16 6 -3 7 1 4 9 -7 18 -14 21 -14 7z"/>
<path d="M3980 5723 c0 -13 5 -23 10 -23 13 0 13 11 0 30 -8 12 -10 11 -10 -7z"/>
<path d="M6955 4141 c-3 -5 -2 -12 3 -15 5 -3 9 1 9 9 0 17 -3 19 -12 6z"/>
<path d="M6796 4026 c10 -8 21 -12 24 -10 5 6 -21 24 -34 24 -6 0 -1 -6 10
-14z"/>
<path d="M6740 3630 c0 -5 5 -10 10 -10 6 0 10 5 10 10 0 6 -4 10 -10 10 -5 0
-10 -4 -10 -10z"/>
<path d="M6897 3549 c4 -13 8 -18 11 -10 2 7 -1 18 -6 23 -8 8 -9 4 -5 -13z"/>
<path d="M3214 10691 c-28 -17 -32 -26 -38 -78 -20 -178 -30 -243 -37 -236 -4
5 -30 50 -58 102 -28 52 -53 96 -55 98 -3 4 -76 -36 -76 -41 0 -4 170 -300
176 -305 3 -3 20 3 38 13 38 20 36 14 57 210 14 125 13 125 83 -7 21 -39 42
-76 47 -81 8 -9 79 22 79 34 0 3 -26 48 -58 102 -32 53 -72 121 -88 152 -16
31 -31 56 -34 56 -3 0 -19 -9 -36 -19z"/>
<path d="M7881 10656 c-21 -22 -22 -26 -7 -53 25 -49 41 -57 70 -38 14 10 26
19 26 22 0 12 -30 60 -47 76 -19 16 -21 16 -42 -7z"/>
<path d="M2745 10399 c-71 -50 -131 -96 -133 -103 -2 -7 6 -23 16 -36 l19 -23
48 36 c26 21 51 37 54 37 4 0 36 -45 71 -101 98 -151 84 -137 117 -113 18 14
27 30 26 44 -2 11 -35 66 -75 122 -78 109 -77 101 -5 139 20 10 37 21 37 23 0
18 -25 66 -33 65 -7 0 -70 -41 -142 -90z"/>
<path d="M8880 10355 c0 -8 4 -15 10 -15 5 0 7 -7 4 -15 -5 -11 1 -15 25 -15
31 0 91 -24 91 -36 0 -15 -45 -84 -54 -84 -6 0 -49 11 -95 25 -75 22 -86 23
-111 10 -47 -25 -52 -62 -15 -118 26 -38 89 -77 124 -77 11 0 22 -9 26 -20 8
-26 62 -70 86 -70 22 0 24 9 8 42 -9 21 -3 35 50 113 40 59 61 99 61 118 0 50
-38 104 -94 132 -57 28 -116 34 -116 10z m36 -218 c11 -11 -22 -47 -43 -47
-49 0 -87 32 -65 54 7 8 99 3 108 -7z"/>
<path d="M2497 10229 c-111 -73 -126 -180 -43 -292 54 -73 148 -89 228 -38 80
51 107 115 63 151 -11 9 -17 5 -29 -18 -50 -97 -172 -97 -222 0 -30 58 12 142
78 155 31 6 33 11 16 48 -15 33 -35 32 -91 -6z"/>
<path d="M9159 10188 c-9 -16 -9 -23 0 -26 6 -2 9 -7 6 -12 -2 -4 13 -19 35
-34 22 -14 40 -28 40 -31 0 -2 -38 -49 -85 -105 -78 -92 -84 -102 -73 -122 15
-26 49 -57 63 -58 6 0 48 47 94 105 46 58 87 105 90 105 3 0 26 -19 49 -42 41
-39 44 -40 60 -23 13 13 14 19 4 22 -6 3 -10 8 -7 13 5 7 -78 81 -217 193
l-47 38 -12 -23z"/>
<path d="M2189 9973 c-30 -18 -89 -104 -89 -128 0 -22 18 -55 30 -55 5 0 17
17 25 37 31 73 70 92 116 55 l22 -19 -41 -76 c-23 -42 -42 -89 -42 -106 0 -42
44 -91 81 -91 35 0 96 52 116 97 10 24 20 33 37 33 15 0 36 13 54 35 27 30 29
37 19 59 -12 25 -37 36 -37 16 0 -28 -39 -2 -113 75 -73 75 -86 85 -117 85
-19 0 -47 -8 -61 -17z m181 -214 c0 -22 -47 -79 -65 -79 -26 0 -25 19 2 74 25
52 28 55 45 39 10 -9 18 -24 18 -34z"/>
<path d="M9395 9880 c-104 -66 -111 -198 -17 -302 95 -106 237 -102 299 7 28
50 29 99 2 162 -53 125 -194 191 -284 133z m188 -81 c30 -16 37 -28 37 -70 0
-67 -74 -139 -143 -139 -53 0 -101 46 -91 87 22 96 125 160 197 122z"/>
<path d="M1855 9643 c-60 -63 -112 -122 -113 -130 -2 -8 49 -65 120 -133 l123
-119 29 29 c26 26 28 31 15 46 -8 9 -12 18 -9 20 3 1 -34 39 -82 84 -49 45
-88 86 -88 92 0 5 25 35 56 66 l55 56 103 -103 103 -103 26 31 c18 22 24 37
19 50 -8 21 -226 231 -238 230 -5 0 -58 -53 -119 -116z"/>
<path d="M9760 9559 c-36 -33 -91 -81 -122 -107 -62 -51 -63 -58 -10 -114 l25
-27 51 44 c28 25 54 45 57 45 4 0 27 -24 52 -53 l46 -54 -50 -39 c-27 -21 -49
-44 -49 -49 0 -6 14 -30 32 -52 l31 -41 86 76 c47 43 103 90 123 106 41 31 40
41 -11 98 l-24 28 -50 -47 -50 -46 -48 51 c-27 28 -49 55 -49 59 0 5 20 24 45
43 50 38 51 50 7 108 -13 17 -25 32 -26 32 0 0 -30 -28 -66 -61z"/>
<path d="M10058 9217 c-54 -50 -58 -56 -58 -98 0 -49 34 -113 84 -158 14 -14
26 -27 26 -30 0 -3 -20 -19 -45 -35 l-46 -28 18 -27 c10 -15 25 -37 34 -50
l17 -22 83 64 c46 35 105 78 131 96 44 29 47 33 35 54 -6 12 -23 34 -36 49
l-23 26 -55 -44 c-29 -24 -60 -44 -67 -44 -17 0 -86 75 -86 93 0 21 26 52 69
82 33 22 40 32 35 49 -8 25 -43 76 -52 76 -4 0 -33 -24 -64 -53z"/>
<path d="M1436 9142 c-87 -110 -106 -155 -86 -202 16 -38 65 -80 94 -80 12 0
32 7 44 16 29 20 37 13 51 -40 11 -44 14 -123 4 -98 -7 17 -23 15 -45 -5 -17
-15 -23 -13 -103 36 -89 54 -128 67 -170 57 -32 -8 -71 -67 -85 -129 -8 -39
-7 -52 6 -72 26 -39 41 -31 46 25 3 27 11 56 18 65 16 19 60 20 85 1 18 -13
18 -16 2 -84 -22 -90 -21 -108 4 -144 54 -75 131 -47 159 60 6 26 14 53 16 60
2 6 12 12 22 12 18 0 52 47 52 73 0 9 4 19 10 22 6 3 7 -1 4 -9 -9 -24 12 -19
29 7 30 47 37 94 20 150 -9 29 -16 78 -17 110 -3 80 -18 87 -72 31 -24 -24
-48 -44 -54 -44 -17 0 -50 19 -50 29 0 5 18 36 40 69 l41 61 42 -30 c23 -16
67 -47 97 -68 31 -21 62 -46 69 -55 18 -22 24 -20 49 13 31 42 20 61 -68 122
-41 29 -98 71 -126 95 l-51 43 -77 -97z m-23 -533 c-2 -35 -36 -74 -55 -63
-11 7 -5 95 8 115 4 7 13 5 27 -4 16 -11 22 -24 20 -48z"/>
<path d="M8104 9088 c-40 -8 -104 -59 -104 -82 1 -21 28 -48 41 -40 7 4 10 3
6 -3 -3 -5 -8 -56 -11 -113 l-5 -103 -40 -18 c-47 -21 -118 -83 -127 -111 -3
-11 -8 -17 -11 -14 -3 3 -22 -16 -41 -42 -20 -26 -39 -49 -42 -52 -3 -3 -17
-21 -30 -40 -13 -19 -27 -37 -30 -40 -15 -14 -90 -109 -90 -115 0 -3 -16 -23
-35 -43 -19 -20 -33 -43 -30 -49 2 -7 0 -12 -4 -10 -5 1 -53 -40 -107 -91 -53
-52 -121 -112 -151 -133 -31 -23 -51 -45 -47 -51 4 -6 3 -8 -3 -5 -15 9 -124
-63 -116 -76 3 -5 1 -7 -4 -4 -17 11 -241 -109 -232 -124 5 -9 20 -7 61 11 29
12 65 31 80 41 14 11 30 19 36 19 17 0 202 128 281 194 113 95 247 236 323
341 4 6 27 35 51 65 23 30 50 65 58 77 45 65 223 253 239 253 29 0 121 -23
148 -38 33 -17 33 -17 52 8 11 14 18 31 15 38 -2 6 -1 12 3 12 10 0 35 139 37
204 2 104 -65 157 -171 134z m125 -38 c11 -6 14 -26 12 -76 -2 -61 -28 -244
-35 -252 -2 -1 -34 6 -72 15 l-69 19 2 94 2 95 41 8 c22 5 40 13 40 18 0 6 4
8 9 5 5 -3 20 3 32 15 13 11 19 18 12 15 -6 -4 -33 -9 -60 -12 -26 -3 -55 -7
-63 -9 -36 -10 -53 31 -20 48 8 4 26 14 40 23 25 15 98 12 129 -6z m-889
-1044 c0 -2 -8 -10 -17 -17 -16 -13 -17 -12 -4 4 13 16 21 21 21 13z"/>
<path d="M8157 8883 c-10 -10 -8 -51 2 -58 11 -6 16 1 25 38 6 26 -10 38 -27
20z"/>
<path d="M10340 8834 c-36 -25 -97 -62 -137 -84 l-72 -40 26 -46 c14 -25 35
-49 47 -54 12 -4 68 -11 126 -15 58 -4 106 -8 108 -10 2 -1 -34 -24 -80 -51
-46 -26 -84 -49 -86 -50 -2 -1 11 -25 28 -53 30 -49 44 -61 52 -43 4 10 214
142 225 142 5 0 14 5 21 12 9 9 5 23 -15 59 l-27 47 -96 7 c-52 4 -110 10
-127 14 l-33 6 70 40 c114 65 107 54 75 113 -16 29 -31 51 -34 51 -3 -1 -35
-21 -71 -45z"/>
<path d="M7655 8666 c-91 -29 -222 -116 -209 -138 5 -7 2 -8 -5 -4 -12 8 -51
-19 -51 -36 0 -19 31 -4 101 50 82 63 120 81 221 109 47 12 63 20 50 25 -26
10 -62 8 -107 -6z"/>
<path d="M8258 8629 c10 -24 17 -50 14 -58 -3 -8 0 -11 7 -7 7 5 11 -1 11 -16
-1 -13 7 -54 16 -93 27 -109 23 -411 -6 -466 -6 -10 -10 -32 -10 -49 0 -18 -4
-29 -10 -25 -5 3 -10 -4 -10 -16 0 -11 -9 -38 -19 -58 -23 -44 -44 -98 -41
-107 1 -4 -3 -10 -8 -13 -6 -3 -31 -35 -57 -70 -37 -50 -44 -66 -33 -73 10 -7
10 -8 -2 -6 -19 4 -203 -185 -192 -197 4 -5 1 -5 -6 -1 -14 8 -109 -70 -104
-86 1 -5 -3 -6 -9 -2 -7 4 -17 0 -23 -8 -6 -8 -13 -15 -16 -14 -3 0 -25 -13
-50 -30 -25 -17 -64 -43 -88 -58 l-42 -26 -20 32 c-32 52 -26 69 41 112 33 21
58 40 55 43 -3 3 7 16 22 30 l27 24 -30 -15 c-16 -8 -56 -34 -88 -58 -31 -24
-83 -57 -113 -72 -48 -24 -54 -30 -39 -39 22 -12 73 12 53 25 -7 4 -8 8 -2 8
26 0 45 -27 46 -67 0 -51 -5 -60 -42 -68 -17 -4 -30 -12 -30 -19 0 -6 -8 -12
-17 -13 -10 0 -56 -16 -103 -33 -47 -18 -97 -37 -112 -42 -15 -6 -26 -14 -23
-18 3 -5 -1 -11 -7 -13 -9 -4 -8 -6 3 -6 52 -3 303 105 294 127 -2 7 0 10 5 7
16 -10 11 -43 -14 -98 -44 -94 -66 -157 -66 -192 0 -35 -16 -48 -26 -21 -3 7
-21 22 -40 32 -19 10 -34 26 -34 36 0 42 -73 75 -137 62 l-31 -6 5 -77 c5 -68
3 -80 -19 -111 -42 -63 -129 -86 -177 -47 -20 17 -61 -35 -61 -78 0 -19 -5
-44 -10 -57 -14 -30 -73 -68 -105 -68 -20 0 -25 -5 -25 -24 0 -13 -4 -26 -10
-28 -6 -2 -2 -44 10 -108 13 -72 18 -135 15 -200 -2 -52 -7 -198 -10 -325 -4
-126 -11 -245 -17 -263 -6 -20 -7 -64 -3 -106 3 -40 6 -99 6 -130 0 -55 -2
-59 -47 -107 -27 -27 -55 -61 -63 -76 -21 -38 -41 -96 -36 -102 3 -2 35 27 72
66 65 67 138 113 179 113 12 0 27 -15 43 -45 27 -50 66 -84 129 -108 52 -21
84 -21 141 -1 51 17 58 14 37 -18 -21 -33 -46 -134 -46 -189 0 -100 47 -242
110 -334 26 -37 29 -48 20 -66 -26 -48 -12 -113 30 -134 38 -20 69 -19 105 4
29 18 31 18 69 -1 88 -44 237 -32 340 29 34 19 65 41 69 49 5 8 13 11 19 8 7
-4 8 -2 4 4 -4 7 -2 12 3 12 6 0 11 7 11 15 0 8 -4 15 -9 15 -15 0 -105 -42
-119 -56 -7 -8 -24 -14 -37 -14 -13 0 -26 -4 -29 -9 -3 -5 -19 -14 -35 -19
-26 -9 -29 -8 -25 6 5 15 4 15 -6 0 -12 -19 -65 -25 -75 -8 -3 6 -16 10 -28 9
-20 -1 -20 -2 3 -9 l25 -8 -25 -1 c-14 0 -36 6 -50 14 -22 13 -23 14 -5 15 11
0 27 5 35 10 11 8 7 9 -15 4 -23 -4 -26 -3 -15 5 11 8 7 10 -20 6 -19 -3 -40
-6 -47 -7 -12 -1 -81 52 -82 65 -1 4 5 7 13 7 8 0 18 4 21 10 3 5 0 7 -9 4 -8
-3 -25 0 -38 6 -22 11 -22 10 -4 -4 11 -9 15 -16 9 -16 -13 0 -93 102 -93 119
0 7 -4 10 -9 7 -5 -3 -18 17 -30 45 -18 40 -20 53 -10 65 6 8 9 17 5 21 -3 3
-6 1 -6 -5 0 -25 -17 -11 -19 16 0 15 -4 61 -6 102 -4 57 -3 71 5 60 9 -12 10
-9 5 13 -3 16 1 53 10 84 20 69 96 153 161 180 24 10 44 21 44 26 0 12 -40 8
-71 -9 -37 -18 -42 -15 -33 20 5 22 10 25 33 19 30 -8 43 -8 124 0 35 4 55 2
52 -4 -4 -5 -10 -7 -15 -4 -5 3 -11 1 -15 -5 -3 -5 -17 -10 -31 -10 -33 0 -31
-18 4 -26 49 -11 48 -12 -11 -13 -50 -1 -66 -6 -112 -38 -53 -37 -75 -65 -34
-43 11 7 23 9 26 6 3 -3 24 4 46 16 61 31 143 22 234 -26 80 -42 212 -159 256
-226 18 -28 27 -36 24 -22 -4 19 -3 21 9 11 8 -6 14 -17 14 -24 0 -6 9 -22 20
-35 21 -25 26 -35 11 -26 -5 3 2 -20 15 -52 31 -74 32 -149 3 -186 -21 -27
-20 -56 2 -56 27 0 69 78 69 130 0 27 -29 130 -52 183 -12 27 -46 83 -75 124
-28 40 -48 73 -43 73 6 0 10 11 10 25 0 20 5 25 23 25 13 0 27 3 31 7 4 4 23
8 44 9 20 0 38 6 40 13 9 26 33 40 61 35 32 -7 71 10 71 30 0 8 6 16 14 19 8
3 16 21 18 39 3 28 7 33 30 33 57 1 77 58 28 82 -28 14 -29 17 -12 56 12 28 2
67 -17 67 -5 0 -12 12 -15 28 -12 50 -28 82 -42 82 -18 0 -18 -1 8 -55 26 -53
17 -67 -37 -58 -23 4 -36 0 -46 -11 -8 -10 -22 -25 -33 -36 -18 -19 -18 -41 0
-85 7 -19 7 -19 -10 -2 -26 25 -46 21 -59 -13 -7 -18 -19 -30 -29 -30 -43 0
-68 -15 -68 -40 0 -14 -7 -20 -21 -20 -37 0 -57 -18 -64 -60 -7 -43 -26 -51
-60 -26 -17 12 -17 16 -3 62 9 27 19 69 23 94 4 25 16 56 26 69 11 13 19 29
19 35 0 6 7 19 14 29 13 17 15 17 40 -7 34 -35 93 -36 129 -2 22 20 25 31 23
76 -3 62 -29 89 -87 90 -41 0 -82 -37 -93 -83 -4 -16 -11 -34 -17 -40 -5 -7
-16 -21 -24 -32 -14 -20 -14 -20 -9 1 3 11 1 59 -4 106 -7 67 -6 99 5 144 8
33 16 60 17 62 2 1 17 -5 35 -14 58 -29 130 17 131 84 0 24 -4 32 -18 32 -23
0 -42 19 -35 35 6 17 -28 28 -60 20 -39 -10 -60 -41 -68 -98 -4 -29 -14 -70
-23 -92 l-15 -40 -1 37 c0 20 -4 38 -9 40 -4 2 -26 33 -49 70 -47 79 -48 113
-1 103 79 -18 179 76 179 168 0 14 10 29 29 40 45 26 89 83 97 123 9 48 -15
98 -58 120 -18 9 -46 27 -61 40 -16 13 -36 24 -46 24 -10 0 -23 11 -29 25
l-12 25 91 0 c109 0 145 -13 190 -71 45 -57 117 -129 129 -129 5 0 3 18 -5 40
-8 23 -17 64 -21 93 -13 116 -40 149 -136 168 l-53 11 42 44 c56 58 127 203
109 221 -3 3 -63 -28 -133 -70 -166 -97 -194 -111 -280 -137 -130 -39 -130
-25 1 69 140 100 275 171 373 197 60 15 73 22 78 42 7 29 -10 52 -40 52 -35 0
-37 11 -5 43 16 17 27 35 23 40 -3 6 -1 7 5 3 13 -8 54 33 45 47 -3 6 -1 7 5
3 6 -3 30 19 55 51 103 135 196 306 237 438 12 39 26 78 31 88 5 9 6 29 3 44
-4 16 -3 24 3 20 14 -9 35 157 34 282 0 117 -7 178 -23 198 -5 7 -7 16 -5 20
7 11 -8 90 -24 128 -7 17 -14 38 -15 48 -4 19 -53 123 -84 177 -22 40 -100
120 -100 103 0 -6 7 -17 16 -24 9 -7 20 -24 25 -37 5 -13 13 -20 19 -17 5 3 7
0 4 -8 -6 -18 49 -111 60 -100 4 4 4 0 0 -10 -3 -9 -2 -23 3 -30 5 -6 17 -34
27 -62 10 -27 20 -57 23 -65 4 -8 6 -18 5 -21 -1 -4 3 -22 9 -40 11 -37 31
-209 32 -274 1 -62 -21 -234 -37 -293 -8 -30 -12 -61 -9 -70 4 -10 2 -13 -5
-8 -7 4 -12 1 -12 -9 0 -32 -131 -318 -156 -340 -6 -5 -21 -27 -33 -48 -13
-21 -28 -43 -34 -50 -7 -7 -27 -30 -45 -52 -83 -101 -149 -157 -232 -200 -47
-23 -122 -70 -168 -104 -45 -33 -82 -57 -82 -52 0 6 5 13 10 16 14 9 59 99 81
164 14 41 19 81 18 165 l0 111 -20 -59 c-27 -78 -59 -122 -164 -229 -73 -73
-86 -83 -81 -60 18 90 27 174 22 218 l-6 50 90 54 c49 29 99 61 109 70 11 9
54 43 95 76 41 33 73 65 71 72 -2 7 2 10 11 6 8 -3 14 1 14 11 0 9 4 15 8 13
4 -1 22 14 40 34 18 20 52 59 77 85 27 29 43 55 39 64 -3 8 -2 11 2 8 6 -7 44
33 44 47 0 4 9 19 20 35 11 15 17 29 14 32 -2 3 2 11 11 18 8 7 15 16 15 21 0
5 12 34 27 66 15 32 27 63 28 68 1 6 4 17 7 25 12 29 26 114 21 124 -4 5 -1 6
7 1 10 -6 11 1 6 31 -5 27 -4 34 3 24 7 -10 8 3 4 43 -4 43 -3 57 7 57 10 0
11 16 5 68 -4 37 -9 85 -11 107 -7 88 -65 246 -99 275 -13 11 -12 5 3 -31z
m-679 -1563 c1 -55 -5 -42 -12 24 -3 34 -2 47 3 35 5 -11 9 -38 9 -59z m248
-17 c-3 -34 -10 -65 -15 -68 -5 -3 -22 -35 -37 -71 -15 -36 -29 -71 -32 -79
-5 -10 -2 -12 8 -6 8 4 11 5 7 1 -3 -4 -10 -8 -15 -8 -4 -1 -33 -38 -63 -83
-30 -46 -69 -99 -85 -118 l-30 -35 -2 42 c-2 49 11 130 28 171 7 17 13 36 15
43 3 17 174 186 174 173 0 -6 -9 -20 -20 -31 -11 -11 -20 -22 -20 -25 0 -10
-60 -100 -60 -90 0 6 -9 -9 -21 -32 -12 -24 -24 -43 -28 -43 -4 0 -7 -10 -8
-21 -1 -12 -8 -29 -16 -38 -8 -9 -17 -28 -21 -43 -3 -14 -9 -34 -12 -45 -3
-10 5 0 19 23 13 22 27 53 31 68 4 17 18 33 39 42 19 9 23 13 10 11 -20 -5
-22 -3 -11 16 9 19 26 42 67 93 5 6 16 25 25 42 9 18 21 32 26 32 6 0 9 3 8 8
-2 9 36 132 41 132 2 0 1 -28 -2 -61z m-272 -46 c-4 -54 -9 -120 -11 -148 -3
-27 -4 -85 -3 -127 0 -72 -9 -96 -26 -67 -4 5 -17 14 -30 19 -24 9 -34 40 -37
114 -1 38 -2 37 -8 -14 l-7 -55 -1 51 c-2 55 19 123 67 219 31 61 38 65 21 11
-5 -17 -12 -44 -15 -59 -3 -15 -10 -25 -15 -22 -6 4 -5 -5 2 -19 6 -15 12 -25
13 -24 2 2 13 51 25 111 12 59 25 107 28 107 3 0 1 -44 -3 -97z m22 -35 c-3
-7 -5 -2 -5 12 0 14 2 19 5 13 2 -7 2 -19 0 -25z m-10 -50 c-3 -8 -6 -5 -6 6
-1 11 2 17 5 13 3 -3 4 -12 1 -19z m-10 -50 c-3 -7 -5 -2 -5 12 0 14 2 19 5
13 2 -7 2 -19 0 -25z m498 -179 c-80 -81 -110 -109 -118 -109 -5 0 -16 -9 -25
-20 -10 -12 -30 -22 -45 -24 -16 -2 -33 -9 -37 -16 -12 -19 -125 -18 -165 0
l-30 14 35 3 c60 5 161 35 167 49 3 8 9 11 14 9 10 -7 66 20 71 34 4 11 148
100 163 101 6 0 -8 -18 -30 -41z m31 -19 c-14 -22 -26 -44 -26 -49 0 -5 -12
-17 -27 -27 -16 -9 -32 -23 -38 -29 -30 -36 -140 -115 -171 -124 -32 -9 -180
-4 -170 6 2 3 -2 16 -10 31 -7 14 -12 27 -11 28 3 3 106 -24 117 -31 6 -3 10
-2 10 3 0 6 15 12 33 15 73 13 97 20 97 27 0 4 24 23 54 43 29 20 78 63 107
96 59 67 76 73 35 11z m-196 -54 c0 -2 -7 -7 -16 -10 -8 -3 -12 -2 -9 4 6 10
25 14 25 6z m183 -151 c15 -7 25 -9 22 -4 -4 5 -2 9 3 9 12 0 37 -30 47 -55
11 -27 22 -175 13 -175 -14 0 -48 59 -42 74 4 12 2 15 -9 10 -9 -3 -17 2 -21
13 -3 11 -21 30 -39 44 -27 20 -47 25 -132 29 -76 4 -93 8 -70 14 17 4 35 9
40 11 6 1 18 -2 29 -7 12 -7 16 -7 12 0 -10 17 11 24 49 16 23 -4 51 -22 80
-51 25 -25 45 -40 45 -35 0 5 -7 15 -15 22 -8 7 -15 19 -15 26 0 8 -6 14 -13
14 -7 0 -19 9 -27 20 -11 15 -26 20 -65 20 l-50 1 22 18 c19 16 29 17 65 9 24
-5 55 -15 71 -23z m-397 -752 c-10 -10 -24 9 -31 42 l-7 30 22 -33 c13 -18 20
-36 16 -39z m-180 -59 c34 -35 92 -33 128 5 25 26 31 28 56 18 31 -12 45 -37
56 -100 5 -28 3 -37 -6 -35 -7 2 -15 -3 -17 -9 -3 -8 4 -13 15 -13 25 0 33
-31 34 -132 1 -84 -10 -144 -23 -131 -5 5 -4 22 3 41 16 41 -2 77 -51 106 -27
15 -37 17 -52 8 -10 -7 -24 -12 -30 -12 -6 0 -19 -10 -30 -22 -10 -13 -18 -18
-19 -12 0 17 -28 25 -36 12 -4 -6 -3 -8 3 -5 6 4 17 0 24 -9 17 -21 64 -44 89
-44 54 0 -9 -66 -91 -95 -55 -20 -148 -30 -185 -21 -22 6 -25 9 -13 17 9 6 10
9 2 9 -8 0 -13 15 -13 40 0 42 9 49 32 27 11 -12 16 -12 26 0 10 11 9 13 -8
13 -29 0 -25 8 26 53 49 43 74 53 85 35 5 -7 9 -7 13 1 4 6 -4 13 -19 17 -23
6 -25 9 -18 43 14 69 0 142 -35 183 -18 22 -9 50 14 41 9 -3 27 -17 40 -29z
m-95 -77 c-10 -9 -11 -8 -5 6 3 10 9 15 12 12 3 -3 0 -11 -7 -18z m-281 -186
c3 -2 -5 -1 -17 2 -13 3 -23 0 -23 -6 0 -6 -3 -8 -6 -4 -4 3 -4 14 0 23 6 16
13 14 46 -15z m64 2 c-3 -34 -5 -35 -24 -15 -25 27 -25 30 3 28 12 0 22 -7 21
-13z m-26 -35 c23 -19 12 -30 -13 -14 -13 9 -31 16 -40 16 -9 0 -13 5 -10 10
7 11 42 4 63 -12z m987 -8 c3 -5 2 -10 -4 -10 -6 0 -8 -8 -5 -17 5 -15 4 -15
-4 -3 -6 8 -8 18 -5 23 3 5 -5 6 -18 2 -19 -5 -21 -4 -9 4 19 14 37 14 45 1z
m76 -6 c11 -14 10 -18 -6 -30 -29 -21 -37 -17 -20 10 16 23 15 25 -7 29 -21 4
-21 4 -2 6 12 0 28 -6 35 -15z m-1080 -13 c20 -16 21 -20 8 -26 -18 -7 -69 10
-69 23 0 27 30 28 61 3z m-88 -18 c-4 -11 -2 -14 5 -9 7 4 12 2 12 -3 0 -12
-42 -15 -53 -5 -3 3 -1 14 5 24 14 22 39 15 31 -7z m157 -18 c0 -9 -6 -12 -17
-8 -11 4 -13 8 -5 11 7 2 9 9 6 14 -4 7 -2 8 4 4 7 -4 12 -14 12 -21z m880
-17 c0 -13 -23 -5 -28 10 -2 7 2 10 12 6 9 -3 16 -11 16 -16z m-961 -7 c11 -7
10 -11 -7 -20 -18 -9 -23 -8 -32 9 -9 17 -8 20 7 20 10 0 24 -4 32 -9z m1055
3 c9 -3 16 -10 16 -15 0 -4 -7 -5 -17 -2 -11 4 -14 3 -9 -6 6 -10 3 -9 -13 0
-14 10 -17 15 -8 21 15 9 12 9 31 2z m-454 -76 c0 -36 -25 -108 -37 -108 -7 0
-13 4 -13 8 0 5 -11 14 -25 20 -19 9 -25 19 -25 42 0 18 -8 37 -19 47 -27 23
-16 35 24 27 18 -3 42 -1 52 5 21 12 43 -9 43 -41z m526 30 c4 -6 -1 -16 -10
-24 -9 -8 -11 -9 -6 -2 15 18 12 24 -11 25 -16 2 -19 -2 -14 -15 4 -12 3 -14
-5 -6 -16 16 -2 43 21 37 11 -3 22 -10 25 -15z m-229 -7 c1 -14 -3 -18 -13
-14 -11 4 -12 9 -3 19 15 18 14 18 16 -5z m73 -2 c0 -5 -4 -9 -8 -9 -5 0 -9 7
-9 15 0 8 4 12 9 9 4 -3 8 -9 8 -15z m68 -12 c15 4 15 3 2 -6 -12 -9 -13 -11
-1 -11 8 0 11 -3 8 -6 -8 -9 -37 15 -36 30 0 7 2 7 5 -1 3 -7 13 -9 22 -6z
m-1394 -25 c3 -5 -15 -21 -39 -37 -25 -15 -45 -31 -45 -35 0 -4 -7 -10 -15
-14 -24 -9 -18 7 21 52 33 39 66 53 78 34z m1216 -24 c0 -5 4 -7 8 -4 5 3 9
-1 9 -9 0 -12 -5 -11 -29 1 -16 8 -26 19 -23 24 7 11 35 2 35 -12z m100 14 c0
-5 -7 -9 -15 -9 -8 0 -12 4 -9 9 3 4 9 8 15 8 5 0 9 -4 9 -8z m-162 -26 c-1
-14 -6 -22 -10 -20 -12 7 -10 44 2 44 5 0 9 -11 8 -24z m137 -4 c-3 -3 -11 0
-18 7 -9 10 -8 11 6 5 10 -3 15 -9 12 -12z m109 -7 c-7 -18 -20 -19 -30 -3 -4
6 -3 8 4 4 6 -3 13 -2 17 4 9 15 15 12 9 -5z m-291 -32 c-7 -3 -9 -11 -6 -19
3 -9 -1 -14 -13 -13 -13 0 -14 2 -5 6 11 5 11 7 0 14 -11 7 -11 9 -1 9 7 0 10
4 7 10 -4 6 1 7 11 3 10 -4 13 -8 7 -10z m162 7 c-3 -5 -11 -10 -16 -10 -6 0
-7 5 -4 10 3 6 11 10 16 10 6 0 7 -4 4 -10z m61 -17 c-5 -11 -1 -13 15 -8 15
5 19 4 15 -4 -10 -15 -43 -14 -49 2 -6 17 3 38 15 31 5 -3 7 -13 4 -21z m-116
-14 c0 7 4 9 10 6 6 -4 5 -11 -2 -19 -10 -11 -15 -11 -25 0 -7 7 -13 19 -13
26 1 8 6 6 15 -6 8 -11 15 -14 15 -7z m-262 -53 c10 -12 0 -8 -23 9 -56 40
-66 51 -27 29 18 -10 41 -28 50 -38z m197 24 c3 -5 1 -10 -4 -10 -6 0 -11 5
-11 10 0 6 2 10 4 10 3 0 8 -4 11 -10z m95 0 c0 -5 -2 -10 -4 -10 -3 0 -8 5
-11 10 -3 6 -1 10 4 10 6 0 11 -4 11 -10z m-147 -75 c-3 -9 -8 -14 -10 -11 -3
3 -2 9 2 15 9 16 15 13 8 -4z m-368 -625 c-3 -5 -11 -10 -16 -10 -6 0 -7 5 -4
10 3 6 11 10 16 10 6 0 7 -4 4 -10z"/>
<path d="M7490 6844 c0 -8 5 -12 10 -9 6 4 8 11 5 16 -9 14 -15 11 -15 -7z"/>
<path d="M7487 6766 c-4 -10 -5 -21 -2 -24 9 -9 17 6 13 25 -3 17 -4 17 -11
-1z"/>
<path d="M7593 5584 c-26 -29 -27 -34 -12 -68 21 -45 84 -44 111 2 39 68 -48
125 -99 66z"/>
<path d="M7438 5299 c-15 -4 -1 -8 37 -10 33 -3 71 -2 85 2 18 4 6 7 -37 10
-35 2 -73 1 -85 -2z"/>
<path d="M7165 5390 c3 -5 8 -10 11 -10 2 0 4 5 4 10 0 6 -5 10 -11 10 -5 0
-7 -4 -4 -10z"/>
<path d="M1020 8500 c-17 -33 -18 -40 -6 -47 8 -4 14 -12 13 -17 -1 -6 19 -20
44 -34 l46 -23 -35 -67 c-19 -37 -36 -69 -38 -71 -2 -2 -28 11 -58 28 -31 17
-59 31 -64 31 -14 0 -45 -74 -33 -78 6 -2 11 -9 11 -16 0 -10 127 -80 281
-154 3 -1 13 14 23 34 13 28 14 39 5 44 -6 4 -9 12 -6 17 4 6 -16 20 -43 33
-28 13 -50 28 -50 34 1 6 15 39 33 73 l32 63 55 -30 c30 -16 61 -29 67 -30 19
0 46 59 34 73 -5 7 -9 16 -9 21 0 5 -64 42 -141 82 l-141 73 -20 -39z"/>
<path d="M10514 8385 c-67 -34 -128 -65 -135 -67 -11 -4 -10 -13 5 -46 30 -66
36 -67 110 -26 45 24 66 32 67 22 3 -31 -5 -55 -37 -115 -41 -78 -42 -106 -7
-158 l26 -39 13 35 c6 18 23 54 38 79 19 34 26 59 26 103 0 31 1 57 3 57 2 0
42 -13 90 -29 l87 -30 -16 37 c-9 20 -18 42 -21 48 -2 7 -30 17 -61 23 -85 17
-91 25 -38 50 25 11 46 24 46 28 0 16 -52 93 -63 92 -7 -1 -67 -29 -133 -64z"/>
<path d="M10805 8053 c-16 -9 -79 -36 -140 -59 -60 -23 -111 -47 -113 -52 -2
-6 6 -30 18 -55 l21 -45 107 -27 c59 -16 113 -31 121 -35 9 -5 -21 -20 -78
-40 -50 -18 -91 -38 -91 -45 0 -19 28 -83 40 -90 6 -4 59 13 118 38 59 24 124
50 145 57 42 13 44 19 18 77 -17 36 -26 43 -63 53 -24 6 -80 21 -126 33 l-83
22 93 35 c51 18 95 35 97 37 9 7 -32 113 -43 113 -6 -1 -24 -8 -41 -17z"/>
<path d="M967 8039 c-32 -25 -95 -151 -78 -157 6 -2 11 -10 11 -18 0 -26 29
-14 46 19 25 50 45 67 76 67 24 0 28 -4 28 -29 0 -16 -9 -50 -20 -76 -23 -55
-14 -55 -174 16 -61 27 -112 46 -115 43 -3 -3 -11 -19 -17 -37 -13 -39 2 -74
36 -82 14 -3 79 -29 144 -57 71 -31 121 -47 124 -40 2 6 21 47 43 92 49 102
60 149 47 197 -21 77 -95 107 -151 62z"/>
<path d="M627 7588 c-21 -64 -33 -114 -27 -116 6 -2 10 -9 10 -16 0 -7 29 -25
65 -41 75 -32 137 -74 160 -109 15 -22 14 -27 -6 -65 -11 -23 -24 -43 -28 -45
-3 -2 -42 4 -86 15 -81 19 -150 24 -180 13 -46 -18 -66 -156 -31 -221 17 -35
54 -48 41 -15 -28 68 -8 142 38 142 59 0 63 -6 74 -96 11 -92 30 -130 68 -140
69 -17 101 24 99 128 -1 37 2 68 8 68 14 0 40 69 33 89 -3 10 1 24 10 31 37
31 2 147 -58 193 -18 13 -59 39 -92 57 -33 19 -61 35 -63 36 -2 1 5 21 15 43
l18 41 130 -45 c71 -24 132 -41 136 -37 13 15 28 72 18 72 -5 0 -9 9 -9 20 0
13 -7 20 -19 20 -15 0 -209 60 -271 84 -12 5 -23 -18 -53 -106z m121 -494 c12
-4 25 -16 28 -28 8 -33 -12 -76 -35 -76 -25 0 -30 8 -37 64 -7 49 -3 52 44 40z"/>
<path d="M10718 7513 c-3 -21 -1 -39 4 -41 4 -2 8 -10 8 -17 0 -7 15 -15 34
-17 32 -4 35 -2 41 31 4 21 2 37 -5 41 -6 4 -11 11 -10 16 1 8 -29 21 -56 23
-7 1 -14 -16 -16 -36z"/>
<path d="M11073 7270 c-128 -26 -223 -139 -223 -263 0 -97 48 -206 118 -269
119 -108 326 -73 409 69 25 43 28 57 28 138 0 80 -4 98 -31 156 -38 81 -99
144 -151 158 -65 17 -106 20 -150 11z m199 -142 c55 -30 82 -77 80 -140 -2
-77 -37 -123 -127 -165 -113 -52 -245 -29 -295 53 -26 41 -26 118 -1 160 65
106 235 152 343 92z"/>
<path d="M7377 7196 c-15 -7 -24 -16 -20 -20 4 -4 0 -4 -9 -1 -9 4 -27 1 -40
-6 -26 -15 -30 -16 -58 -18 -21 -1 -29 -31 -7 -31 28 0 166 54 160 63 -3 6 -1
7 5 3 7 -4 17 -4 23 0 8 4 7 9 -2 15 -17 10 -17 10 -52 -5z"/>
<path d="M495 6881 c-72 -32 -108 -147 -70 -221 15 -28 14 -30 -3 -30 -24 0
-36 -58 -19 -93 10 -21 21 -26 72 -32 58 -6 384 -56 457 -70 31 -6 37 -4 43
14 4 12 4 40 0 61 -6 37 -9 40 -38 40 -27 0 -127 14 -184 26 l-22 4 19 43 c26
56 25 101 -4 163 -32 69 -76 96 -164 100 -37 2 -76 0 -87 -5z m178 -129 c47
-26 49 -76 7 -117 -27 -26 -38 -30 -89 -30 -78 1 -125 28 -129 76 -3 41 26 85
61 93 40 8 118 -3 150 -22z"/>
<path d="M11205 6629 c-22 -4 -130 -17 -240 -29 -110 -11 -219 -23 -243 -26
l-44 -5 7 -42 c11 -67 19 -71 122 -58 48 6 102 13 120 16 30 3 32 2 22 -21
-16 -43 -10 -88 19 -144 36 -71 67 -93 141 -98 75 -5 122 10 161 54 26 30 30
42 30 92 0 36 -8 74 -21 102 -13 29 -16 46 -9 48 12 4 4 63 -14 96 -9 18 -17
20 -51 15z m15 -148 c50 -36 31 -109 -35 -137 -69 -28 -176 -9 -190 35 -4 13
1 36 12 59 32 65 149 89 213 43z"/>
<path d="M374 6418 c-4 -13 -2 -24 5 -26 6 -2 11 -10 11 -17 0 -9 15 -13 49
-13 50 -1 121 -30 170 -69 l23 -19 -119 -33 c-65 -18 -125 -35 -134 -37 -22
-6 -35 -83 -17 -96 10 -8 10 -11 1 -15 -16 -6 -19 -353 -3 -353 6 0 9 -6 8
-12 -2 -7 7 -14 20 -16 22 -3 23 -2 16 62 -5 53 -4 66 7 67 8 0 74 0 147 -1
l132 -1 -1 38 c-1 77 0 77 -148 77 l-133 1 -3 67 -2 66 61 20 c34 11 95 30
136 43 41 12 81 28 89 35 11 10 25 4 75 -35 76 -59 116 -84 123 -78 3 3 2 18
-1 34 -5 19 -24 39 -58 63 -29 19 -97 79 -152 133 -110 106 -167 137 -251 137
-36 0 -45 -4 -51 -22z"/>
<path d="M11090 6189 c-44 -13 -87 -53 -107 -99 -27 -64 0 -200 43 -217 24 -9
25 0 8 50 -13 38 -14 53 -4 83 14 40 60 74 103 74 l27 0 0 -120 c0 -73 4 -120
10 -120 6 0 10 -7 10 -15 0 -8 7 -15 15 -15 8 0 15 8 15 19 0 15 7 18 36 17
56 -2 79 35 79 127 0 61 -5 81 -30 127 -17 30 -44 62 -60 72 -39 22 -101 30
-145 17z m164 -134 c14 -13 26 -35 26 -47 0 -32 -27 -68 -50 -68 -15 0 -19 9
-22 60 -5 90 1 97 46 55z"/>
<path d="M10980 5800 c0 -24 12 -42 55 -83 30 -28 55 -54 55 -57 0 -3 -27 -22
-60 -41 l-60 -34 0 -47 c0 -27 5 -48 10 -48 6 0 10 -7 10 -15 0 -10 30 5 87
45 47 33 90 60 96 60 5 0 36 -25 70 -56 34 -30 63 -50 65 -44 10 29 -10 76
-43 100 -19 14 -35 28 -35 31 0 4 20 16 45 28 l45 21 -1 53 c-1 92 -5 93 -84
37 -39 -27 -77 -49 -85 -50 -9 0 -48 29 -87 65 -39 36 -74 65 -77 65 -3 0 -6
-14 -6 -30z"/>
<path d="M645 5725 c-3 -8 -7 -21 -9 -29 -3 -10 -30 -16 -93 -20 -160 -12
-193 -31 -193 -116 1 -77 60 -193 86 -167 4 4 -3 29 -15 56 -13 26 -21 56 -19
67 4 23 43 44 83 44 28 0 32 -4 50 -56 10 -31 30 -74 44 -95 22 -34 30 -39 63
-39 27 0 41 6 52 22 20 29 20 95 0 143 -12 30 -13 44 -5 62 15 33 14 56 -5
103 -17 42 -31 51 -39 25z m6 -189 c10 -35 -5 -66 -31 -66 -21 0 -45 31 -55
71 -6 25 -5 26 36 25 38 -1 43 -4 50 -30z"/>
<path d="M10960 5384 l0 -48 103 -98 c90 -86 99 -97 72 -93 -211 33 -205 33
-205 -16 0 -64 13 -79 68 -79 26 0 92 -7 146 -15 135 -20 126 -23 126 33 0 47
0 48 -102 145 l-103 98 55 -6 c30 -4 77 -11 103 -16 73 -14 75 -13 79 31 2 22
0 40 -4 40 -5 0 -8 8 -8 18 0 16 -16 20 -117 30 -65 7 -139 15 -165 19 l-48 6
0 -49z"/>
<path d="M620 5315 c-36 -8 -133 -23 -215 -34 -235 -34 -215 -28 -215 -60 0
-38 19 -91 33 -91 7 0 44 7 82 15 124 26 121 28 134 -67 7 -46 15 -99 18 -119
l5 -35 -89 -13 c-145 -20 -136 -15 -128 -64 4 -23 11 -43 16 -45 5 -2 9 -11 9
-19 0 -9 6 -13 14 -10 20 8 244 44 375 61 62 8 115 17 117 19 7 6 -13 98 -23
108 -6 6 -53 2 -123 -10 -63 -11 -116 -18 -117 -17 -9 8 -36 227 -29 233 4 4
58 15 119 23 l112 16 3 32 c3 30 -16 93 -28 91 -3 -1 -34 -7 -70 -14z"/>
<path d="M7280 5000 c-11 -7 -12 -12 -4 -20 8 -8 13 -6 17 9 3 12 4 21 4 21
-1 0 -9 -5 -17 -10z"/>
<path d="M6510 4985 c0 -3 19 -17 42 -31 32 -20 58 -27 107 -30 l66 -3 -66 12
c-36 7 -84 23 -107 35 -23 12 -42 20 -42 17z"/>
<path d="M7250 4973 c0 -4 5 -15 10 -23 8 -13 10 -13 10 2 0 9 -4 20 -10 23
-5 3 -10 3 -10 -2z"/>
<path d="M7230 4953 c0 -7 5 -15 10 -18 6 -3 11 -18 11 -33 2 -23 2 -24 6 -5
2 13 -3 33 -11 45 -9 12 -16 17 -16 11z"/>
<path d="M7560 4941 c0 -11 5 -23 10 -26 6 -3 10 3 10 14 0 11 -4 23 -10 26
-5 3 -10 -3 -10 -14z"/>
<path d="M7506 4942 c-3 -6 -2 -13 3 -16 5 -3 7 -15 4 -26 -3 -12 0 -20 7 -20
7 0 10 6 7 14 -3 8 -1 17 6 19 9 3 7 10 -4 22 -10 10 -19 13 -23 7z"/>
<path d="M7595 4927 c-4 -10 -5 -21 -1 -24 10 -10 18 4 13 24 -4 17 -4 17 -12
0z"/>
<path d="M7270 4921 c0 -6 4 -13 10 -16 6 -3 7 1 4 9 -7 18 -14 21 -14 7z"/>
<path d="M7620 4903 c0 -8 5 -11 10 -8 6 3 10 1 10 -4 0 -16 17 -13 23 3 4 9
-3 16 -19 19 -16 3 -24 0 -24 -10z"/>
<path d="M7677 4903 c-4 -3 -7 -13 -7 -21 0 -12 3 -12 15 -2 8 7 15 16 15 21
0 11 -14 12 -23 2z"/>
<path d="M7490 4870 c0 -5 7 -10 16 -10 8 0 12 5 9 10 -3 6 -10 10 -16 10 -5
0 -9 -4 -9 -10z"/>
<path d="M7711 4866 c-8 -9 -11 -19 -7 -23 9 -9 29 13 24 27 -2 8 -8 7 -17 -4z"/>
<path d="M7292 4850 c0 -14 2 -19 5 -12 2 6 2 18 0 25 -3 6 -5 1 -5 -13z"/>
<path d="M7510 4840 c0 -5 5 -10 11 -10 5 0 7 5 4 10 -3 6 -8 10 -11 10 -2 0
-4 -4 -4 -10z"/>
<path d="M7730 4820 c-12 -8 -11 -10 8 -10 12 0 22 5 22 10 0 13 -11 13 -30 0z"/>
<path d="M7505 4800 c3 -5 10 -10 16 -10 5 0 9 5 9 10 0 6 -7 10 -16 10 -8 0
-12 -4 -9 -10z"/>
<path d="M7753 4803 c-18 -6 -16 -23 1 -23 17 0 30 16 19 23 -5 2 -14 2 -20 0z"/>
<path d="M7508 4768 c9 -9 15 -9 24 0 9 9 7 12 -12 12 -19 0 -21 -3 -12 -12z"/>
<path d="M7760 4770 c-12 -8 -9 -10 13 -10 16 0 26 4 22 10 -8 12 -16 12 -35
0z"/>
<path d="M7505 4729 c-12 -19 5 -23 22 -6 16 16 16 17 1 17 -9 0 -20 -5 -23
-11z"/>
<path d="M7768 4733 c6 -2 18 -2 25 0 6 3 1 5 -13 5 -14 0 -19 -2 -12 -5z"/>
<path d="M7546 4704 c-4 -10 -1 -14 6 -12 15 5 23 28 10 28 -5 0 -13 -7 -16
-16z"/>
<path d="M7763 4703 c9 -9 19 -14 23 -11 10 10 -6 28 -24 28 -15 0 -15 -1 1
-17z"/>
<path d="M7251 4700 c1 -8 -1 -28 -6 -43 -5 -18 -3 -33 4 -40 6 -6 11 -20 12
-31 1 -18 2 -17 8 4 10 32 2 58 -10 38 -12 -18 -12 4 0 35 6 14 6 29 0 38 -8
12 -10 12 -8 -1z"/>
<path d="M7720 4691 c0 -20 -3 -22 -12 -13 -17 17 -29 15 -22 -3 7 -17 22 -19
43 -6 10 7 11 13 2 27 -9 17 -10 17 -11 -5z"/>
<path d="M7371 4684 c0 -11 3 -14 6 -6 3 7 2 16 -1 19 -3 4 -6 -2 -5 -13z"/>
<path d="M7586 4691 c-4 -7 -5 -15 -2 -18 9 -9 19 4 14 18 -4 11 -6 11 -12 0z"/>
<path d="M7620 4661 c0 -25 6 -27 13 -6 4 8 2 17 -3 20 -6 4 -10 -3 -10 -14z"/>
<path d="M7650 4661 c0 -22 16 -36 24 -22 8 12 -3 41 -15 41 -5 0 -9 -9 -9
-19z"/>
<path d="M8810 4580 c-30 -11 -80 -40 -112 -65 -32 -25 -68 -45 -81 -45 -12 0
-33 -7 -46 -16 -22 -16 -24 -15 -59 19 -42 41 -97 67 -141 67 -16 0 -33 5 -36
10 -3 6 -15 10 -26 10 -13 0 -19 -7 -19 -23 0 -13 -11 -34 -25 -47 -13 -13
-32 -43 -41 -66 -14 -38 -15 -52 -4 -106 6 -35 20 -83 31 -108 11 -24 19 -54
18 -65 -1 -11 -1 -27 0 -37 2 -26 102 -117 141 -129 l35 -11 -3 -63 c-4 -68 9
-105 36 -105 9 -1 31 -20 49 -44 42 -57 134 -117 188 -124 57 -6 128 26 155
70 51 84 46 152 -19 248 -21 31 -44 73 -52 94 -11 30 -23 43 -54 57 -22 10
-50 19 -62 19 -14 0 -23 6 -23 15 0 10 10 15 33 15 36 0 77 24 77 45 0 9 21
18 58 25 112 22 172 47 230 96 42 36 82 102 82 138 0 15 9 39 20 53 38 48 21
84 -29 63 -24 -10 -34 -8 -62 9 -47 29 -180 29 -259 1z m55 -14 c-56 -13 -145
-55 -145 -68 0 -4 17 2 38 14 70 39 173 58 210 39 9 -5 25 -12 35 -15 10 -3
15 -11 12 -17 -4 -5 1 -19 10 -29 9 -10 15 -25 12 -32 -4 -8 -6 -7 -6 5 -1 17
-21 25 -21 7 0 -5 -8 -7 -17 -3 -10 3 -15 2 -10 -2 4 -5 -1 -18 -10 -29 l-18
-20 30 18 c30 19 30 19 12 -1 -9 -11 -15 -22 -12 -25 3 -3 -2 -11 -12 -19 -11
-9 -14 -10 -9 -1 4 6 4 12 1 12 -13 0 -84 -40 -91 -51 -5 -8 -3 -9 6 -4 8 5
11 3 8 -6 -2 -8 -20 -15 -39 -17 -19 -2 -38 -8 -43 -13 -14 -13 -49 -11 -40 2
4 8 -3 9 -24 5 -42 -10 -68 24 -66 88 1 37 -1 46 -13 42 -38 -15 47 68 97 94
37 20 101 39 130 38 14 0 3 -5 -25 -12z m257 -38 c-7 -7 -12 -8 -12 -2 0 14
12 26 19 19 2 -3 -1 -11 -7 -17z m-760 -18 c18 0 28 -5 28 -15 0 -18 16 -20
23 -2 3 6 10 -1 16 -17 7 -16 8 -32 3 -35 -11 -8 -11 -54 1 -62 5 -4 8 -17 8
-30 -1 -13 -2 -39 -3 -56 -1 -24 -7 -34 -22 -39 -12 -4 -39 -19 -62 -35 -35
-24 -44 -26 -64 -16 -34 17 -63 107 -58 175 4 44 11 59 41 90 21 21 37 44 37
52 0 11 3 11 12 2 7 -7 25 -12 40 -12z m698 -10 c0 -5 -4 -10 -10 -10 -5 0
-10 5 -10 10 0 6 5 10 10 10 6 0 10 -4 10 -10z m-442 -59 c10 -6 10 -10 -3
-21 -8 -7 -15 -9 -15 -5 0 4 -7 2 -15 -5 -9 -7 -13 -20 -10 -28 3 -8 1 -20 -4
-26 -5 -6 -11 -22 -14 -36 -3 -14 -5 1 -3 32 2 39 9 64 21 78 20 22 24 23 43
11z m306 -85 c-10 -8 -21 -12 -24 -10 -5 6 21 24 34 24 6 0 1 -6 -10 -14z
m-314 -5 c0 -5 -7 -11 -15 -15 -15 -5 -20 5 -8 17 9 10 23 9 23 -2z m410 -26
c0 -2 -10 -9 -22 -15 -22 -11 -22 -10 -4 4 21 17 26 19 26 11z m-493 -77 c-3
-8 -6 -5 -6 6 -1 11 2 17 5 13 3 -3 4 -12 1 -19z m-107 -27 c0 -31 -30 -93
-43 -88 -6 2 -14 14 -18 28 -6 22 -7 22 -14 5 -4 -10 -4 -21 2 -25 5 -3 12
-14 16 -23 7 -19 27 -25 27 -8 0 6 4 10 9 10 5 0 9 -11 9 -24 0 -23 -4 -24
-32 -19 -44 8 -66 21 -66 39 0 8 -4 12 -10 9 -21 -13 -9 16 18 43 30 31 83 71
95 72 4 0 7 -8 7 -19z m133 -66 l6 -40 -14 35 c-7 19 -14 46 -14 60 0 22 1 23
8 5 5 -11 11 -38 14 -60z m-86 58 c-4 -3 -2 -12 4 -20 9 -10 7 -13 -7 -13 -18
-1 -18 -1 1 -16 13 -11 16 -18 8 -21 -7 -2 -9 -11 -6 -20 4 -11 2 -14 -5 -9
-7 4 -12 16 -12 27 0 10 -4 19 -10 19 -13 0 -13 -26 0 -51 6 -10 7 -19 2 -19
-5 0 -14 11 -20 25 -12 26 1 75 21 75 5 0 7 7 3 15 -3 10 1 15 11 15 9 0 13
-3 10 -7z m243 -122 c0 -5 -25 -12 -55 -16 -30 -3 -55 -11 -55 -16 0 -6 -4 -8
-9 -5 -14 9 -42 -5 -35 -16 4 -6 -2 -7 -16 -3 -15 5 -20 4 -16 -4 4 -6 1 -11
-7 -11 -7 0 -14 -6 -14 -12 -1 -23 -8 -43 -17 -50 -5 -3 -10 -33 -10 -66 -1
-47 -4 -58 -13 -50 -16 13 -16 82 0 125 17 45 62 92 110 114 43 19 137 26 137
10z m3 -95 c9 -5 17 -13 17 -19 0 -5 -8 -3 -18 6 -29 26 -38 20 -12 -8 12 -13
28 -22 34 -18 6 3 8 3 4 -2 -4 -4 4 -23 17 -43 32 -46 21 -61 -18 -25 l-30 28
26 -36 c32 -43 34 -56 8 -64 -11 -3 -23 -15 -26 -26 -4 -10 -12 -19 -18 -20
-7 0 -4 -4 6 -8 10 -4 18 -11 17 -16 -1 -6 8 -12 20 -15 32 -7 20 -25 -15 -22
-24 2 -27 0 -15 -9 12 -9 12 -10 -5 -6 -11 3 -29 8 -40 12 l-20 8 20 -17 c27
-24 -2 -8 -42 22 -18 13 -37 20 -44 16 -8 -5 -9 -3 -4 5 4 7 -2 22 -16 37 -17
18 -25 21 -30 12 -9 -14 -10 -2 -9 77 1 53 21 95 45 95 8 0 15 7 15 16 0 15 3
14 28 -2 25 -16 26 -16 13 0 -11 14 -12 19 -2 25 15 9 70 7 94 -3z m101 -250
c-3 -8 -13 -17 -22 -21 -13 -5 -13 -2 3 15 21 24 26 25 19 6z m-87 -92 c-3 -3
-12 -4 -19 -1 -8 3 -5 6 6 6 11 1 17 -2 13 -5z"/>
<path d="M8287 4243 c-4 -3 -7 -13 -7 -21 0 -9 3 -12 7 -9 3 4 12 2 20 -4 10
-9 13 -8 13 4 0 17 -24 40 -33 30z"/>
<path d="M8316 4125 c7 -18 44 -40 44 -27 0 10 -33 42 -43 42 -3 0 -4 -7 -1
-15z"/>
<path d="M8710 3936 c0 -2 8 -10 18 -17 15 -13 16 -12 3 4 -13 16 -21 21 -21
13z"/>
<path d="M8530 3826 c0 -2 8 -10 18 -17 15 -13 16 -12 3 4 -13 16 -21 21 -21
13z"/>
<path d="M8594 3781 c18 -18 23 -30 15 -33 -7 -2 0 -12 16 -22 15 -10 24 -12
20 -5 -6 9 -3 10 10 5 15 -5 16 -4 5 9 -7 9 -19 14 -27 11 -8 -3 -11 -1 -8 4
3 5 -6 21 -21 35 -37 34 -44 32 -10 -4z"/>
<path d="M7443 4553 c-1 -19 1 -22 8 -12 11 17 12 39 2 39 -5 0 -9 -12 -10
-27z"/>
<path d="M7490 4566 c0 -2 8 -10 18 -17 15 -13 16 -12 3 4 -13 16 -21 21 -21
13z"/>
<path d="M7942 4421 c7 -11 16 -17 20 -15 5 3 2 12 -6 20 -21 20 -28 17 -14
-5z"/>
<path d="M7757 4389 c7 -7 15 -10 18 -7 3 3 -2 9 -12 12 -14 6 -15 5 -6 -5z"/>
<path d="M7708 4373 c7 -3 16 -2 19 1 4 3 -2 6 -13 5 -11 0 -14 -3 -6 -6z"/>
<path d="M7588 4363 c7 -3 16 -2 19 1 4 3 -2 6 -13 5 -11 0 -14 -3 -6 -6z"/>
<path d="M7603 4343 c9 -2 23 -2 30 0 6 3 -1 5 -18 5 -16 0 -22 -2 -12 -5z"/>
<path d="M6730 4290 c-36 -21 -96 -49 -133 -61 -77 -25 -83 -35 -11 -19 61 13
140 51 185 90 45 39 37 37 -41 -10z"/>
<path d="M6629 4286 c-15 -7 -51 -21 -80 -31 -30 -10 -58 -21 -63 -26 -14 -13
1 -24 16 -12 7 6 42 21 78 33 35 13 70 29 78 36 17 18 4 18 -29 0z"/>
<path d="M8098 3704 c-30 -16 -68 -80 -68 -113 0 -35 30 -95 56 -115 67 -48
177 -16 203 59 20 57 8 110 -34 152 -28 28 -40 33 -81 33 -27 -1 -61 -8 -76
-16z m159 -99 c23 -24 12 -26 -16 -4 -13 10 -18 19 -11 19 6 0 18 -7 27 -15z
m-13 -37 c-5 -8 -1 -9 12 -4 14 5 16 4 7 -5 -13 -13 -37 -3 -28 12 4 5 8 9 11
9 3 0 2 -5 -2 -12z"/>
<path d="M7125 3650 c3 -5 8 -10 11 -10 2 0 4 5 4 10 0 6 -5 10 -11 10 -5 0
-7 -4 -4 -10z"/>
<path d="M10545 3490 c-28 -11 -72 -60 -84 -93 -17 -43 -13 -94 9 -137 23 -45
25 -46 47 -25 12 13 13 21 3 44 -6 16 -10 46 -8 67 7 83 104 81 178 -3 21 -24
67 -100 102 -169 62 -124 63 -124 80 -102 9 13 40 76 69 141 57 130 58 123
-14 180 -37 29 -40 30 -35 9 4 -12 2 -20 -2 -17 -18 11 -21 -17 -5 -35 23 -26
22 -55 -6 -119 l-24 -53 -68 136 c-54 109 -75 141 -105 161 -38 26 -96 32
-137 15z"/>
<path d="M10361 3179 c-20 -47 -10 -191 18 -256 26 -58 102 -136 156 -159 154
-64 308 91 233 236 -32 63 -85 92 -157 87 -48 -3 -58 -8 -93 -45 -21 -23 -41
-55 -44 -72 -8 -38 -20 -30 -50 34 -19 40 -24 68 -24 129 0 84 -14 102 -39 46z
m280 -194 c62 -27 99 -69 99 -113 0 -24 -18 -32 -75 -32 -79 0 -155 45 -155
91 0 60 60 85 131 54z"/>
<path d="M1286 3055 c-104 -42 -175 -136 -184 -240 -3 -38 0 -54 12 -64 14
-11 16 -11 16 3 0 10 4 15 9 12 4 -3 9 19 9 48 1 91 46 151 140 186 100 38
212 23 282 -38 84 -71 107 -176 55 -253 -50 -77 -194 -118 -259 -75 -15 9 -26
23 -23 29 2 7 58 30 124 52 144 49 159 60 140 107 -20 47 -78 95 -139 113 -98
29 -173 14 -231 -47 -33 -35 -38 -45 -35 -81 3 -40 5 -43 48 -57 58 -19 56
-16 40 -46 -41 -75 25 -145 135 -145 125 0 247 100 275 225 22 100 -47 222
-155 272 -70 33 -177 33 -259 -1z m207 -196 c31 -14 43 -39 25 -50 -43 -27
-177 -37 -217 -16 -34 17 -36 33 -6 53 52 34 139 40 198 13z m-160 -106 c-7
-2 -19 -2 -25 0 -7 3 -2 5 12 5 14 0 19 -2 13 -5z"/>
<path d="M10447 2726 c-10 -14 -17 -27 -17 -30 0 -2 -18 -37 -41 -76 -37 -65
-39 -74 -25 -88 22 -22 36 -7 91 95 46 85 46 86 27 105 -19 19 -19 19 -35 -6z"/>
<path d="M1649 2590 c-37 -22 -54 -64 -59 -150 -5 -80 -6 -85 -28 -88 -50 -7
-76 50 -52 114 6 15 9 29 6 31 -8 9 -45 -17 -66 -48 -22 -29 -22 -31 -5 -74
23 -63 65 -95 121 -95 36 0 50 5 71 28 37 39 45 69 38 137 -8 68 6 92 45 80
34 -11 42 -39 24 -85 -9 -22 -14 -43 -11 -46 3 -3 25 12 48 33 41 39 41 40 30
76 -24 72 -109 118 -162 87z"/>
<path d="M10012 2575 c-43 -36 -76 -108 -69 -151 13 -79 77 -123 155 -106 l40
9 6 -57 c8 -67 23 -92 71 -114 51 -25 99 -13 148 38 67 68 83 134 51 202 -23
48 -64 67 -128 61 -28 -2 -59 -8 -68 -12 -16 -6 -18 -1 -18 40 0 40 -5 52 -34
81 -29 29 -41 34 -79 34 -34 0 -53 -6 -75 -25z m88 -70 c32 -17 50 -43 50 -73
0 -31 -73 -41 -109 -15 -32 25 -50 59 -44 84 7 24 61 26 103 4z m252 -176 c46
-48 23 -99 -43 -99 -31 0 -47 7 -74 33 -19 17 -37 44 -40 58 -6 24 -3 28 32
37 54 14 94 5 125 -29z"/>
<path d="M1782 2329 c-40 -12 -109 -79 -128 -125 -33 -78 -5 -154 69 -192 30
-16 53 -22 68 -17 17 6 19 9 8 16 -11 6 -9 9 8 9 34 0 37 18 3 25 -34 7 -79
56 -82 88 -4 56 15 107 38 107 7 0 39 -32 70 -71 31 -39 62 -73 70 -76 17 -6
60 30 80 69 56 108 -64 207 -204 167z m126 -65 c17 -12 22 -24 20 -47 -2 -17
-8 -32 -14 -34 -11 -4 -74 72 -74 89 0 14 45 9 68 -8z"/>
<path d="M9772 2258 c-13 -27 -42 -126 -42 -145 0 -21 16 -15 30 12 7 14 18
25 24 25 10 0 113 -83 248 -201 52 -45 56 -52 48 -75 -12 -31 -12 -34 -2 -34
7 0 69 73 121 143 18 26 6 33 -23 13 -29 -18 -21 -23 -263 181 -68 57 -124
103 -126 103 -2 0 -9 -10 -15 -22z"/>
<path d="M2047 2115 c-21 -15 -35 -30 -32 -36 4 -5 1 -9 -4 -9 -6 0 -11 -5
-11 -11 0 -6 12 -10 28 -9 15 1 32 2 39 1 17 -1 74 -64 65 -72 -4 -3 -63 -12
-132 -18 -159 -15 -180 -20 -180 -36 0 -7 -6 -15 -12 -18 -13 -4 25 -53 124
-160 l43 -48 48 16 c26 9 44 21 41 26 -3 5 0 9 5 9 6 0 11 7 11 16 0 14 -7 15
-40 10 -37 -6 -44 -3 -85 35 -25 23 -43 44 -41 48 3 4 22 8 44 9 189 11 302
37 302 68 0 4 -24 32 -53 63 -29 31 -68 75 -87 99 l-35 42 -38 -25z"/>
<path d="M9760 1803 c-85 -104 -81 -98 -74 -117 11 -29 28 -18 97 63 69 82 77
100 53 120 -10 9 -26 -5 -76 -66z"/>
<path d="M2235 1808 c-71 -39 -125 -122 -125 -193 0 -87 61 -154 149 -163 80
-7 170 56 208 147 30 70 -10 171 -80 204 -40 19 -122 22 -152 5z m140 -73 c50
-49 27 -140 -48 -192 -47 -33 -89 -34 -122 -3 -50 47 -18 153 60 197 52 29 80
29 110 -2z"/>
<path d="M9340 1801 c-19 -10 -48 -40 -65 -66 -52 -83 -35 -182 40 -234 72
-49 152 -33 205 41 35 47 42 39 48 -57 4 -60 0 -81 -21 -133 -26 -66 -19 -79
18 -36 32 37 65 156 65 234 0 177 -164 319 -290 251z m44 -62 c42 -12 136 -92
136 -117 0 -27 -41 -62 -72 -62 -85 0 -181 126 -133 174 19 19 19 19 69 5z"/>
<path d="M2545 1590 c-3 -5 -3 -10 2 -10 4 0 1 -5 -7 -10 -12 -7 -12 -12 -2
-22 21 -21 14 -37 -50 -114 -62 -73 -64 -75 -101 -69 -27 4 -36 2 -31 -6 3 -6
0 -15 -7 -20 -11 -7 -9 -12 11 -26 14 -10 41 -32 61 -50 42 -38 73 -46 43 -11
-16 20 -17 21 -1 9 23 -18 45 0 22 19 -8 7 -15 17 -15 22 0 11 107 140 125
150 20 12 84 -11 100 -36 20 -31 12 -50 -54 -130 -51 -62 -82 -79 -96 -56 -11
18 -27 11 -22 -10 3 -11 1 -18 -3 -15 -19 12 -19 -15 0 -28 11 -8 38 -31 60
-51 37 -34 60 -45 60 -28 0 4 -6 14 -12 22 -11 12 -10 12 3 2 23 -17 31 -4 13
23 -14 21 -11 26 49 101 98 121 115 166 79 210 -23 29 -54 44 -91 44 -32 0
-41 16 -20 37 8 8 -5 18 -46 37 -66 30 -62 29 -70 16z"/>
<path d="M9053 1551 c-43 -27 -83 -98 -83 -148 0 -66 62 -123 135 -123 27 0
29 -6 16 -63 -13 -55 3 -104 42 -127 120 -74 284 74 238 213 -15 43 -75 77
-139 77 l-41 0 6 50 c3 30 1 61 -7 80 -24 58 -106 78 -167 41z m83 -85 c24
-24 34 -43 34 -65 0 -30 -2 -31 -41 -31 -51 0 -99 42 -99 88 0 36 6 42 43 42
20 0 40 -11 63 -34z m174 -205 c72 -52 38 -136 -46 -115 -26 6 -45 20 -61 43
-23 33 -30 80 -15 95 12 13 95 -3 122 -23z"/>
<path d="M8754 1331 c-42 -18 -94 -106 -94 -159 0 -24 1 -24 19 -8 10 9 21 30
25 47 7 38 47 55 89 38 52 -22 62 -91 21 -150 -14 -21 -23 -43 -19 -49 4 -7
10 -8 14 -3 15 22 58 43 87 43 57 0 114 -65 114 -129 0 -42 -37 -66 -89 -57
-34 5 -41 3 -55 -19 -20 -31 -20 -49 -1 -65 39 -32 155 51 191 135 47 114 -20
233 -126 223 l-38 -3 5 50 c5 44 2 55 -18 79 -26 30 -87 43 -125 27z"/>
<path d="M3170 1132 c0 -4 6 -14 13 -22 10 -12 9 -12 -5 -2 -23 18 -34 -3 -13
-24 18 -18 18 -10 -17 -222 -12 -77 -17 -127 -11 -133 6 -6 59 27 140 86 101
74 138 95 163 95 24 0 31 4 27 14 -4 10 -1 13 7 10 8 -3 17 -1 20 5 3 5 -21
26 -54 46 -61 37 -85 41 -59 9 12 -15 11 -16 -9 -10 -26 9 -28 0 -7 -24 14
-16 9 -22 -60 -74 -89 -67 -88 -70 -49 112 2 12 12 22 20 22 10 0 14 6 10 15
-4 10 1 15 16 15 28 0 18 10 -56 55 -59 35 -76 41 -76 27z"/>
<path d="M3583 1087 c4 -11 1 -17 -8 -17 -19 0 -19 -16 0 -24 8 -3 15 -13 15
-22 0 -9 -41 -97 -92 -196 -90 -177 -92 -179 -120 -173 -29 7 -36 -3 -17 -22
9 -9 7 -10 -10 -6 -11 3 -21 1 -20 -3 1 -13 148 -83 154 -74 3 5 -3 14 -12 20
-17 11 -17 11 0 6 31 -10 39 4 15 23 l-22 19 19 41 c10 23 22 38 26 34 4 -4
17 -45 29 -89 16 -62 29 -89 53 -112 46 -44 118 -67 76 -25 -9 9 -7 10 10 6
28 -7 26 7 -4 35 -14 14 -33 52 -44 90 -37 124 -36 120 -4 129 15 4 61 7 100
8 51 0 73 4 73 13 0 6 5 12 10 12 27 0 4 22 -55 53 -60 32 -87 34 -69 5 4 -7
3 -8 -4 -4 -8 4 -12 0 -12 -12 0 -14 -9 -21 -32 -25 -18 -3 -48 -9 -67 -13
l-34 -7 82 158 c82 160 85 174 40 175 -9 0 -31 3 -49 7 -28 5 -32 4 -27 -10z"/>
<path d="M2655 1064 c-9 -14 -14 -28 -11 -32 7 -7 122 -89 219 -158 l67 -47
25 23 c14 13 25 27 25 31 0 10 -279 209 -294 209 -8 0 -21 -12 -31 -26z"/>
<path d="M8257 1017 c-8 -13 -31 -108 -51 -212 -20 -105 -39 -202 -42 -217 -4
-18 -2 -28 5 -28 6 0 52 20 101 45 49 25 93 45 98 45 4 0 21 -25 37 -55 31
-60 44 -66 75 -35 25 25 25 41 0 91 l-21 40 20 28 c18 24 19 31 7 40 -8 7 -25
9 -38 6 -21 -5 -28 4 -88 125 -36 73 -70 136 -76 141 -8 6 -17 2 -27 -14z m83
-299 c0 -4 -27 -21 -60 -38 -36 -18 -60 -26 -60 -18 0 17 30 180 36 198 4 9
20 -13 44 -60 22 -41 39 -78 40 -82z"/>
<path d="M8610 889 c-82 -55 -90 -63 -90 -96 0 -33 15 -29 94 24 81 54 95 69
96 101 0 32 -16 27 -100 -29z"/>
<path d="M7839 813 c-45 -48 -79 -93 -79 -105 0 -5 15 0 34 11 l34 21 75 -182
76 -182 -20 -27 c-10 -15 -19 -29 -19 -32 0 -11 159 59 160 71 0 6 5 12 10 12
6 0 10 5 10 10 0 6 -13 10 -28 10 -22 0 -32 7 -42 28 -19 42 -130 312 -147
360 -8 23 -18 42 -22 42 -4 0 -23 -17 -42 -37z"/>
<path d="M3843 747 c3 -9 1 -18 -6 -20 -8 -3 -6 -11 7 -25 19 -21 18 -23 -18
-117 -45 -117 -47 -166 -9 -201 24 -22 35 -25 86 -22 55 3 58 2 52 -19 -4 -19
1 -23 46 -32 63 -14 62 -14 55 5 -4 12 -2 15 9 10 21 -8 19 21 -2 33 -17 9
-17 12 1 63 10 29 36 91 57 137 22 46 37 86 35 88 -7 8 -110 32 -114 28 -3 -3
1 -11 7 -19 10 -12 9 -14 -8 -9 -27 7 -27 -4 0 -26 l21 -17 -32 -82 c-38 -99
-53 -116 -93 -108 -43 9 -67 34 -67 70 0 17 19 74 41 126 57 133 56 126 17
133 -18 4 -46 10 -62 13 -24 6 -28 4 -23 -9z"/>
<path d="M7472 703 c-18 -9 -48 -37 -65 -62 -28 -41 -32 -54 -32 -113 0 -63 2
-69 35 -103 60 -62 146 -69 195 -15 38 42 45 14 19 -68 -11 -33 -35 -70 -70
-108 -30 -32 -54 -61 -54 -66 0 -21 28 -2 90 60 76 78 117 152 126 232 20 172
-116 306 -244 243z m92 -80 c22 -23 43 -59 53 -92 17 -51 17 -54 -2 -67 -10
-8 -35 -14 -55 -14 -60 0 -110 67 -110 149 0 72 55 84 114 24z"/>
<path d="M5790 593 c-63 -23 -151 -113 -173 -177 -53 -156 15 -323 160 -391
78 -37 186 -35 270 4 187 89 230 344 83 491 -63 63 -129 90 -220 89 -41 0 -95
-8 -120 -16z m245 -40 c204 -106 196 -405 -13 -499 -108 -49 -236 -23 -314 64
-58 64 -71 98 -72 182 -1 119 54 207 159 257 64 30 178 28 240 -4z"/>
<path d="M5786 471 c-26 -27 -28 -35 -24 -88 8 -106 92 -230 180 -268 37 -15
76 -5 104 27 18 19 18 20 -14 49 -28 25 -62 38 -62 24 0 -3 17 -20 38 -40 47
-44 35 -46 -14 -3 -24 22 -39 29 -42 20 -7 -21 -18 -13 -42 30 -12 24 -28 50
-35 58 -7 8 -23 34 -36 58 -19 35 -21 45 -10 52 12 7 12 16 0 59 l-14 52 -29
-30z"/>
<path d="M5834 474 c4 -15 10 -39 13 -55 5 -28 17 -37 27 -21 9 15 -17 102
-32 102 -10 0 -12 -7 -8 -26z"/>
<path d="M4290 583 c-35 -6 -78 -50 -90 -91 -11 -41 0 -66 55 -126 26 -28 35
-47 33 -65 -7 -57 -89 -25 -103 40 -8 35 -18 37 -39 4 -26 -40 -21 -78 14 -99
76 -45 138 -38 189 20 45 50 38 108 -19 159 -29 26 -53 73 -46 91 3 8 17 14
30 14 28 0 56 -33 56 -67 0 -56 45 -22 55 43 7 39 6 40 -32 56 -49 22 -72 26
-103 21z"/>
<path d="M6863 550 c-40 -9 -59 -24 -88 -70 -48 -76 -39 -132 29 -186 l33 -27
-34 -49 c-38 -58 -42 -98 -13 -146 23 -38 54 -52 116 -52 57 0 93 19 138 72
65 75 45 163 -47 213 l-35 18 29 40 c74 102 -5 217 -128 187z m46 -77 c36 -33
49 -89 28 -117 -13 -17 -18 -18 -45 -7 -41 17 -62 42 -68 83 -4 25 -1 39 11
51 23 24 40 21 74 -10z m9 -237 c15 -8 40 -28 55 -44 23 -24 28 -37 25 -68 -2
-31 -8 -40 -30 -48 -73 -26 -147 80 -108 155 13 23 22 24 58 5z"/>
<path d="M4549 469 c-91 -53 -138 -203 -87 -279 27 -40 98 -80 143 -80 73 1
151 65 181 149 19 53 17 91 -8 141 -41 81 -151 114 -229 69z m131 -66 c46 -59
31 -192 -26 -225 -40 -23 -88 -9 -109 33 -20 37 -19 119 1 168 25 62 94 75
134 24z m-73 -269 c-3 -3 -12 -4 -19 -1 -8 3 -5 6 6 6 11 1 17 -2 13 -5z"/>
<path d="M4850 417 c0 -8 6 -18 13 -21 6 -4 2 -4 -10 -2 -29 5 -29 -1 0 -28
17 -16 28 -48 46 -136 35 -173 42 -200 55 -200 11 0 45 45 143 190 33 48 66
86 77 88 22 5 46 26 46 40 0 5 -17 12 -37 15 -21 4 -53 10 -72 13 -29 6 -33 5
-28 -9 4 -11 1 -17 -8 -17 -22 0 -18 -18 5 -25 11 -3 20 -13 20 -20 0 -16 -79
-145 -89 -145 -4 0 -15 41 -25 92 -13 69 -14 93 -5 98 6 4 9 13 5 19 -5 7 -1
9 8 5 10 -4 16 -1 16 8 0 10 -21 18 -65 26 -35 7 -71 15 -80 18 -9 4 -15 0
-15 -9z"/>
<path d="M7255 334 c-44 -14 -86 -33 -92 -42 -13 -16 -18 -62 -7 -62 3 0 45
12 95 27 54 16 89 32 89 40 0 7 5 13 10 13 6 0 10 11 10 25 0 31 -5 30 -105
-1z"/>
</g>
</svg>
